<?xml version="1.0" encoding="UTF-8" standalone="no"?><svg xmlns="http://www.w3.org/2000/svg" xmlns:xlink="http://www.w3.org/1999/xlink" height="612" version="1.1" width="902.4072265625"><defs/><g><g transform="translate(-5,-6) scale(1,1)"><rect fill="#ffffff" height="592" stroke="none" width="544" x="176" y="16"/></g><g transform="translate(-5,-6) scale(1,1)"><path d="M 176 16 L 720 16 L 720 608 L 176 608 L 176 16 Z Z" fill="none" stroke="#000000" stroke-miterlimit="10"/></g><g transform="translate(-5,-6) scale(1,1)"><g><path fill="none" stroke="none"/><text fill="#000000" font-family="Arial" font-size="13px" font-style="normal" font-weight="bold" stroke="none" text-decoration="none" x="407.911376953125" y="34">Applicazione</text></g></g><g transform="translate(-5,-6) scale(1,1)"><path d="M 79.49162571022727 161.68 C 79.49162571022727 156.886167936 83.37746803517273 153 88.1708984375 153 C 92.96432883982727 153 96.85017116477273 156.886167936 96.85017116477273 161.68 C 96.85017116477273 166.47383206400002 92.96432883982727 170.36 88.1708984375 170.36 C 83.37746803517273 170.36 79.49162571022727 166.47383206400002 79.49162571022727 161.68 Z" fill="#ffffff" stroke="none"/></g><g transform="translate(-5,-6) scale(1,1)"><path d="M 79.49162571022727 161.68 C 79.49162571022727 156.886167936 83.37746803517273 153 88.1708984375 153 C 92.96432883982727 153 96.85017116477273 156.886167936 96.85017116477273 161.68 C 96.85017116477273 166.47383206400002 92.96432883982727 170.36 88.1708984375 170.36 C 83.37746803517273 170.36 79.49162571022727 166.47383206400002 79.49162571022727 161.68 Z" fill="none" stroke="#000000" stroke-miterlimit="10"/></g><g transform="translate(-5,-6) scale(1,1)"><path d="M 88.1708984375 170.36 L 88.1708984375 187.64" fill="none" stroke="#000000" stroke-miterlimit="10"/></g><g transform="translate(-5,-6) scale(1,1)"><path d="M 78.98108025568182 176.84 L 97.36071661931818 176.84" fill="none" stroke="#000000" stroke-miterlimit="10"/></g><g transform="translate(-5,-6) scale(1,1)"><path d="M 88.1708984375 187.64 L 75.40726207386363 205" fill="none" stroke="#000000" stroke-miterlimit="10"/></g><g transform="translate(-5,-6) scale(1,1)"><path d="M 88.1708984375 187.64 L 100.93453480113637 205" fill="none" stroke="#000000" stroke-miterlimit="10"/></g><g transform="translate(-5,-6) scale(1,1)"><g><path fill="none" stroke="none"/><text fill="#000000" font-family="Arial" font-size="13px" font-style="normal" font-weight="bold" stroke="none" text-decoration="none" x="66.5" y="224">Cliente</text></g></g><g transform="translate(-5,-6) scale(1,1)"><path d="M 79.40935031960227 33.68 C 79.40935031960227 28.886167936 83.29519264454773 25 88.088623046875 25 C 92.88205344920227 25 96.76789577414773 28.886167936 96.76789577414773 33.68 C 96.76789577414773 38.473832064 92.88205344920227 42.36 88.088623046875 42.36 C 83.29519264454773 42.36 79.40935031960227 38.473832064 79.40935031960227 33.68 Z" fill="#ffffff" stroke="none"/></g><g transform="translate(-5,-6) scale(1,1)"><path d="M 79.40935031960227 33.68 C 79.40935031960227 28.886167936 83.29519264454773 25 88.088623046875 25 C 92.88205344920227 25 96.76789577414773 28.886167936 96.76789577414773 33.68 C 96.76789577414773 38.473832064 92.88205344920227 42.36 88.088623046875 42.36 C 83.29519264454773 42.36 79.40935031960227 38.473832064 79.40935031960227 33.68 Z" fill="none" stroke="#000000" stroke-miterlimit="10"/></g><g transform="translate(-5,-6) scale(1,1)"><path d="M 88.088623046875 42.36 L 88.088623046875 59.64" fill="none" stroke="#000000" stroke-miterlimit="10"/></g><g transform="translate(-5,-6) scale(1,1)"><path d="M 78.89880486505682 48.84 L 97.27844122869318 48.84" fill="none" stroke="#000000" stroke-miterlimit="10"/></g><g transform="translate(-5,-6) scale(1,1)"><path d="M 88.088623046875 59.64 L 75.32498668323863 77" fill="none" stroke="#000000" stroke-miterlimit="10"/></g><g transform="translate(-5,-6) scale(1,1)"><path d="M 88.088623046875 59.64 L 100.85225941051137 77" fill="none" stroke="#000000" stroke-miterlimit="10"/></g><g transform="translate(-5,-6) scale(1,1)"><g><path fill="none" stroke="none"/><text fill="#000000" font-family="Arial" font-size="13px" font-style="normal" font-weight="bold" stroke="none" text-decoration="none" x="67.864990234375" y="96">Utente</text></g></g><g transform="translate(-5,-6) scale(1,1)"><path d="M 88 151 L 88 104" fill="none" stroke="#000000" stroke-miterlimit="10"/></g><g transform="translate(-5,-6) scale(1,1)"><path d="M 96.41903551203198 124.32534971524831 L 88 104 L 79.58096448796803 124.32534971524831" fill="#FFFFFF" stroke="none"/></g><g transform="translate(-5,-6) scale(1,1)"><path d="M 96.41903551203198 124.32534971524831 L 88 104 L 79.58096448796803 124.32534971524831 L 96.41903551203198 124.32534971524831" fill="none" stroke="#000000" stroke-miterlimit="10"/></g><g transform="translate(-5,-6) scale(1,1)"><path d="M 184 56 C 184 46.6111584 213.7730608 39 250.5 39 C 287.2269392 39 317 46.6111584 317 56 C 317 65.3888416 287.2269392 73 250.5 73 C 213.7730608 73 184 65.3888416 184 56 Z" fill="#ffffff" stroke="none"/></g><g transform="translate(-5,-6) scale(1,1)"><path d="M 184 56 C 184 46.6111584 213.7730608 39 250.5 39 C 287.2269392 39 317 46.6111584 317 56 C 317 65.3888416 287.2269392 73 250.5 73 C 213.7730608 73 184 65.3888416 184 56 Z" fill="none" stroke="#000000" stroke-miterlimit="10"/></g><g transform="translate(-5,-6) scale(1,1)"><g><path fill="none" stroke="none"/><text fill="#000000" font-family="Arial" font-size="13px" font-style="normal" font-weight="bold" stroke="none" text-decoration="none" x="207.878662109375" y="61.5">Registrazione</text></g></g><g transform="translate(-5,-6) scale(1,1)"><path d="M 328 56 C 328 46.6111584 343.4461744 39 362.5 39 C 381.5538256 39 397 46.6111584 397 56 C 397 65.3888416 381.5538256 73 362.5 73 C 343.4461744 73 328 65.3888416 328 56 Z" fill="#ffffff" stroke="none"/></g><g transform="translate(-5,-6) scale(1,1)"><path d="M 328 56 C 328 46.6111584 343.4461744 39 362.5 39 C 381.5538256 39 397 46.6111584 397 56 C 397 65.3888416 381.5538256 73 362.5 73 C 343.4461744 73 328 65.3888416 328 56 Z" fill="none" stroke="#000000" stroke-miterlimit="10"/></g><g transform="translate(-5,-6) scale(1,1)"><g><path fill="none" stroke="none"/><text fill="#000000" font-family="Arial" font-size="13px" font-style="normal" font-weight="bold" stroke="none" text-decoration="none" x="344.812255859375" y="61.5">Login</text></g></g><g transform="translate(-5,-6) scale(1,1)"><path d="M 637 137 C 637 127.6111584 653.78932 120 674.5 120 C 695.21068 120 712 127.6111584 712 137 C 712 146.3888416 695.21068 154 674.5 154 C 653.78932 154 637 146.3888416 637 137 Z" fill="#ffffff" stroke="none"/></g><g transform="translate(-5,-6) scale(1,1)"><path d="M 637 137 C 637 127.6111584 653.78932 120 674.5 120 C 695.21068 120 712 127.6111584 712 137 C 712 146.3888416 695.21068 154 674.5 154 C 653.78932 154 637 146.3888416 637 137 Z" fill="none" stroke="#000000" stroke-miterlimit="10"/></g><g transform="translate(-5,-6) scale(1,1)"><g><path fill="none" stroke="none"/><text fill="#000000" font-family="Arial" font-size="13px" font-style="normal" font-weight="bold" stroke="none" text-decoration="none" x="652.483154296875" y="142.5">Logout</text></g></g><g transform="translate(-5,-6) scale(1,1)"><path d="M 402 56 C 402 46.6111584 471.395856 39 557 39 C 642.604144 39 712 46.6111584 712 56 C 712 65.3888416 642.604144 73 557 73 C 471.395856 73 402 65.3888416 402 56 Z" fill="#ffffff" stroke="none"/></g><g transform="translate(-5,-6) scale(1,1)"><path d="M 402 56 C 402 46.6111584 471.395856 39 557 39 C 642.604144 39 712 46.6111584 712 56 C 712 65.3888416 642.604144 73 557 73 C 471.395856 73 402 65.3888416 402 56 Z" fill="none" stroke="#000000" stroke-miterlimit="10"/></g><g transform="translate(-5,-6) scale(1,1)"><g><path fill="none" stroke="none"/><text fill="#000000" font-family="Arial" font-size="13px" font-style="normal" font-weight="bold" stroke="none" text-decoration="none" x="451.892333984375" y="61.5">Modifica dei dati e della password</text></g></g><g transform="translate(-5,-6) scale(1,1)"><path d="M 555 97 C 555 87.6111584 590.1456432 80 633.5 80 C 676.8543568 80 712 87.6111584 712 97 C 712 106.3888416 676.8543568 114 633.5 114 C 590.1456432 114 555 106.3888416 555 97 Z" fill="#ffffff" stroke="none"/></g><g transform="translate(-5,-6) scale(1,1)"><path d="M 555 97 C 555 87.6111584 590.1456432 80 633.5 80 C 676.8543568 80 712 87.6111584 712 97 C 712 106.3888416 676.8543568 114 633.5 114 C 590.1456432 114 555 106.3888416 555 97 Z" fill="none" stroke="#000000" stroke-miterlimit="10"/></g><g transform="translate(-5,-6) scale(1,1)"><g><path fill="none" stroke="none"/><text fill="#000000" font-family="Arial" font-size="13px" font-style="normal" font-weight="bold" stroke="none" text-decoration="none" x="582.569580078125" y="102.5">De-registrazione</text></g></g><g transform="translate(-5,-6) scale(1,1)"><path d="M 115 168 L 228 74" fill="none" stroke="#000000" stroke-miterlimit="10"/></g><g transform="translate(-5,-6) scale(1,1)"><path d="M 115 182 L 408 88 L 473 74" fill="none" stroke="#000000" stroke-miterlimit="10"/></g><g transform="translate(-5,-6) scale(1,1)"><path d="M 115 178 L 327 73" fill="none" stroke="#000000" stroke-miterlimit="10"/></g><g transform="translate(-5,-6) scale(1,1)"><path d="M 115 185 L 344 137 L 636 137" fill="none" stroke="#000000" stroke-miterlimit="10"/></g><g transform="translate(-5,-6) scale(1,1)"><path d="M 115 184 L 440 97 L 554 97" fill="none" stroke="#000000" stroke-miterlimit="10"/></g><g transform="translate(-5,-6) scale(1,1)"><path d="M 296 161 C 296 151.6111584 352.1882576 144 421.5 144 C 490.8117424 144 547 151.6111584 547 161 C 547 170.3888416 490.8117424 178 421.5 178 C 352.1882576 178 296 170.3888416 296 161 Z" fill="#ffffff" stroke="none"/></g><g transform="translate(-5,-6) scale(1,1)"><path d="M 296 161 C 296 151.6111584 352.1882576 144 421.5 144 C 490.8117424 144 547 151.6111584 547 161 C 547 170.3888416 490.8117424 178 421.5 178 C 352.1882576 178 296 170.3888416 296 161 Z" fill="none" stroke="#000000" stroke-miterlimit="10"/></g><g transform="translate(-5,-6) scale(1,1)"><g><path fill="none" stroke="none"/><text fill="#000000" font-family="Arial" font-size="13px" font-style="normal" font-weight="bold" stroke="none" text-decoration="none" x="337.33642578125" y="166.5">Associazione di un carrello</text></g></g><g transform="translate(-5,-6) scale(1,1)"><path d="M 115 187 L 280 160 L 295 160" fill="none" stroke="#000000" stroke-miterlimit="10"/></g><g transform="translate(-5,-6) scale(1,1)"><path d="M 765.7711667258523 145.68 C 765.7711667258523 140.886167936 769.6570090507977 137 774.450439453125 137 C 779.2438698554523 137 783.1297121803977 140.886167936 783.1297121803977 145.68 C 783.1297121803977 150.47383206400002 779.2438698554523 154.36 774.450439453125 154.36 C 769.6570090507977 154.36 765.7711667258523 150.47383206400002 765.7711667258523 145.68 Z" fill="#ffffff" stroke="none"/></g><g transform="translate(-5,-6) scale(1,1)"><path d="M 765.7711667258523 145.68 C 765.7711667258523 140.886167936 769.6570090507977 137 774.450439453125 137 C 779.2438698554523 137 783.1297121803977 140.886167936 783.1297121803977 145.68 C 783.1297121803977 150.47383206400002 779.2438698554523 154.36 774.450439453125 154.36 C 769.6570090507977 154.36 765.7711667258523 150.47383206400002 765.7711667258523 145.68 Z" fill="none" stroke="#000000" stroke-miterlimit="10"/></g><g transform="translate(-5,-6) scale(1,1)"><path d="M 774.450439453125 154.36 L 774.450439453125 171.64" fill="none" stroke="#000000" stroke-miterlimit="10"/></g><g transform="translate(-5,-6) scale(1,1)"><path d="M 765.2606212713068 160.84 L 783.6402576349432 160.84" fill="none" stroke="#000000" stroke-miterlimit="10"/></g><g transform="translate(-5,-6) scale(1,1)"><path d="M 774.450439453125 171.64 L 761.6868030894886 189" fill="none" stroke="#000000" stroke-miterlimit="10"/></g><g transform="translate(-5,-6) scale(1,1)"><path d="M 774.450439453125 171.64 L 787.2140758167614 189" fill="none" stroke="#000000" stroke-miterlimit="10"/></g><g transform="translate(-5,-6) scale(1,1)"><g><path fill="none" stroke="none"/><text fill="#000000" font-family="Arial" font-size="13px" font-style="normal" font-weight="bold" stroke="none" text-decoration="none" x="749.885009765625" y="208">Carrello</text></g></g><g transform="translate(-5,-6) scale(1,1)"><path d="M 547 160 L 736 160" fill="none" stroke="#000000" stroke-miterlimit="10"/></g><g transform="translate(-5,-6) scale(1,1)"><path d="M 488 208 C 488 198.6111584 538.36796 191 600.5 191 C 662.63204 191 713 198.6111584 713 208 C 713 217.3888416 662.63204 225 600.5 225 C 538.36796 225 488 217.3888416 488 208 Z" fill="#ffffff" stroke="none"/></g><g transform="translate(-5,-6) scale(1,1)"><path d="M 488 208 C 488 198.6111584 538.36796 191 600.5 191 C 662.63204 191 713 198.6111584 713 208 C 713 217.3888416 662.63204 225 600.5 225 C 538.36796 225 488 217.3888416 488 208 Z" fill="none" stroke="#000000" stroke-miterlimit="10"/></g><g transform="translate(-5,-6) scale(1,1)"><g><path fill="none" stroke="none"/><text fill="#000000" font-family="Arial" font-size="13px" font-style="normal" font-weight="bold" stroke="none" text-decoration="none" x="525.365966796875" y="213.5">Scansione di un carrello</text></g></g><g transform="translate(-5,-6) scale(1,1)"><path d="M 490 179 L 531 190" fill="none" stroke="#000000" stroke-dasharray="3" stroke-miterlimit="10"/></g><g transform="translate(-5,-6) scale(1,1)"><path d="M 520.0936469815832 191.4322932093921 L 531 190 L 522.2752595816545 183.3008280636717" fill="none" stroke="#000000" stroke-miterlimit="10"/></g><g transform="translate(-5,-6) scale(1,1)"><g><path fill="none" stroke="none"/><text fill="#000000" font-family="Arial" font-size="13px" font-style="normal" font-weight="normal" stroke="none" text-decoration="none" x="434.5" y="193">«include»</text></g></g><g transform="translate(-5,-6) scale(1,1)"><path d="M 334 273 C 334 263.6111584 418.8420304 256 523.5 256 C 628.1579696 256 713 263.6111584 713 273 C 713 282.3888416 628.1579696 290 523.5 290 C 418.8420304 290 334 282.3888416 334 273 Z" fill="#ffffff" stroke="none"/></g><g transform="translate(-5,-6) scale(1,1)"><path d="M 334 273 C 334 263.6111584 418.8420304 256 523.5 256 C 628.1579696 256 713 263.6111584 713 273 C 713 282.3888416 628.1579696 290 523.5 290 C 418.8420304 290 334 282.3888416 334 273 Z" fill="none" stroke="#000000" stroke-miterlimit="10"/></g><g transform="translate(-5,-6) scale(1,1)"><g><path fill="none" stroke="none"/><text fill="#000000" font-family="Arial" font-size="13px" font-style="normal" font-weight="bold" stroke="none" text-decoration="none" x="393.97607421875" y="278.5">Visualizzazione di un prodotto in catalogo</text></g></g><g transform="translate(-5,-6) scale(1,1)"><path d="M 208 225 C 208 215.6111584 260.38267840000003 208 325 208 C 389.61732159999997 208 442 215.6111584 442 225 C 442 234.3888416 389.61732159999997 242 325 242 C 260.38267840000003 242 208 234.3888416 208 225 Z" fill="#ffffff" stroke="none"/></g><g transform="translate(-5,-6) scale(1,1)"><path d="M 208 225 C 208 215.6111584 260.38267840000003 208 325 208 C 389.61732159999997 208 442 215.6111584 442 225 C 442 234.3888416 389.61732159999997 242 325 242 C 260.38267840000003 242 208 234.3888416 208 225 Z" fill="none" stroke="#000000" stroke-miterlimit="10"/></g><g transform="translate(-5,-6) scale(1,1)"><g><path fill="none" stroke="none"/><text fill="#000000" font-family="Arial" font-size="13px" font-style="normal" font-weight="bold" stroke="none" text-decoration="none" x="246.641357421875" y="230.5">Scansione di un prodotto</text></g></g><g transform="translate(-5,-6) scale(1,1)"><path d="M 449 255 L 399 243" fill="none" stroke="#000000" stroke-dasharray="3" stroke-miterlimit="10"/></g><g transform="translate(-5,-6) scale(1,1)"><path d="M 409.86444357292913 241.27841182315902 L 399 243 L 407.89966839849166 249.46497504998197" fill="none" stroke="#000000" stroke-miterlimit="10"/></g><g transform="translate(-5,-6) scale(1,1)"><g><path fill="none" stroke="none"/><text fill="#000000" font-family="Arial" font-size="13px" font-style="normal" font-weight="normal" stroke="none" text-decoration="none" x="439.5" y="242">«include»</text></g></g><g transform="translate(-5,-6) scale(1,1)"><path d="M 333 272 L 160 272 L 115 222" fill="none" stroke="#000000" stroke-miterlimit="10"/></g><g transform="translate(-5,-6) scale(1,1)"><path d="M 115 204 L 160 224 L 207 224" fill="none" stroke="#000000" stroke-miterlimit="10"/></g><g transform="translate(-5,-6) scale(1,1)"><path d="M 115 192 L 487 204" fill="none" stroke="#000000" stroke-miterlimit="10"/></g><g transform="translate(-5,-6) scale(1,1)"><path d="M 337 313 C 337 303.6111584 421.17045759999996 296 525 296 C 628.8295424 296 713 303.6111584 713 313 C 713 322.3888416 628.8295424 330 525 330 C 421.17045759999996 330 337 322.3888416 337 313 Z" fill="#ffffff" stroke="none"/></g><g transform="translate(-5,-6) scale(1,1)"><path d="M 337 313 C 337 303.6111584 421.17045759999996 296 525 296 C 628.8295424 296 713 303.6111584 713 313 C 713 322.3888416 628.8295424 330 525 330 C 421.17045759999996 330 337 322.3888416 337 313 Z" fill="none" stroke="#000000" stroke-miterlimit="10"/></g><g transform="translate(-5,-6) scale(1,1)"><g><path fill="none" stroke="none"/><text fill="#000000" font-family="Arial" font-size="13px" font-style="normal" font-weight="bold" stroke="none" text-decoration="none" x="396.532958984375" y="318.5">Visualizzazione del contenuto del carrello</text></g></g><g transform="translate(-5,-6) scale(1,1)"><path d="M 336 312 L 168 312 L 115 232" fill="none" stroke="#000000" stroke-miterlimit="10"/></g><g transform="translate(-5,-6) scale(1,1)"><path d="M 409 353 C 409 343.6111584 477.0527104 336 561 336 C 644.9472896 336 713 343.6111584 713 353 C 713 362.3888416 644.9472896 370 561 370 C 477.0527104 370 409 362.3888416 409 353 Z" fill="#ffffff" stroke="none"/></g><g transform="translate(-5,-6) scale(1,1)"><path d="M 409 353 C 409 343.6111584 477.0527104 336 561 336 C 644.9472896 336 713 343.6111584 713 353 C 713 362.3888416 644.9472896 370 561 370 C 477.0527104 370 409 362.3888416 409 353 Z" fill="none" stroke="#000000" stroke-miterlimit="10"/></g><g transform="translate(-5,-6) scale(1,1)"><g><path fill="none" stroke="none"/><text fill="#000000" font-family="Arial" font-size="13px" font-style="normal" font-weight="bold" stroke="none" text-decoration="none" x="457.81884765625" y="358.5">Visualizzazione acquisti effettuati</text></g></g><g transform="translate(-5,-6) scale(1,1)"><path d="M 408 353 L 152 352 L 104 232" fill="none" stroke="#000000" stroke-miterlimit="10"/></g><g transform="translate(-5,-6) scale(1,1)"><path d="M 216 377 C 216 367.6111584 257.413656 360 308.5 360 C 359.586344 360 401 367.6111584 401 377 C 401 386.3888416 359.586344 394 308.5 394 C 257.413656 394 216 386.3888416 216 377 Z" fill="#ffffff" stroke="none"/></g><g transform="translate(-5,-6) scale(1,1)"><path d="M 216 377 C 216 367.6111584 257.413656 360 308.5 360 C 359.586344 360 401 367.6111584 401 377 C 401 386.3888416 359.586344 394 308.5 394 C 257.413656 394 216 386.3888416 216 377 Z" fill="none" stroke="#000000" stroke-miterlimit="10"/></g><g transform="translate(-5,-6) scale(1,1)"><g><path fill="none" stroke="none"/><text fill="#000000" font-family="Arial" font-size="13px" font-style="normal" font-weight="bold" stroke="none" text-decoration="none" x="247.46728515625" y="382.5">Ingresso in negozio</text></g></g><g transform="translate(-5,-6) scale(1,1)"><path d="M 443 465 C 443 455.6111584 480.8319344 448 527.5 448 C 574.1680656 448 612 455.6111584 612 465 C 612 474.3888416 574.1680656 482 527.5 482 C 480.8319344 482 443 474.3888416 443 465 Z" fill="#ffffff" stroke="none"/></g><g transform="translate(-5,-6) scale(1,1)"><path d="M 443 465 C 443 455.6111584 480.8319344 448 527.5 448 C 574.1680656 448 612 455.6111584 612 465 C 612 474.3888416 574.1680656 482 527.5 482 C 480.8319344 482 443 474.3888416 443 465 Z" fill="none" stroke="#000000" stroke-miterlimit="10"/></g><g transform="translate(-5,-6) scale(1,1)"><g><path fill="none" stroke="none"/><text fill="#000000" font-family="Arial" font-size="13px" font-style="normal" font-weight="bold" stroke="none" text-decoration="none" x="472.240478515625" y="470.5">Uscita da negozio</text></g></g><g transform="translate(-5,-6) scale(1,1)"><path d="M 439 401 C 439 391.6111584 478.6227952 384 527.5 384 C 576.3772048 384 616 391.6111584 616 401 C 616 410.3888416 576.3772048 418 527.5 418 C 478.6227952 418 439 410.3888416 439 401 Z" fill="#ffffff" stroke="none"/></g><g transform="translate(-5,-6) scale(1,1)"><path d="M 439 401 C 439 391.6111584 478.6227952 384 527.5 384 C 576.3772048 384 616 391.6111584 616 401 C 616 410.3888416 576.3772048 418 527.5 418 C 478.6227952 418 439 410.3888416 439 401 Z" fill="none" stroke="#000000" stroke-miterlimit="10"/></g><g transform="translate(-5,-6) scale(1,1)"><g><path fill="none" stroke="none"/><text fill="#000000" font-family="Arial" font-size="13px" font-style="normal" font-weight="bold" stroke="none" text-decoration="none" x="469.339599609375" y="406.5">Blocco del carrello</text></g></g><g transform="translate(-5,-6) scale(1,1)"><path d="M 192 497 C 192 487.6111584 243.7111056 480 307.5 480 C 371.2888944 480 423 487.6111584 423 497 C 423 506.3888416 371.2888944 514 307.5 514 C 243.7111056 514 192 506.3888416 192 497 Z" fill="#ffffff" stroke="none"/></g><g transform="translate(-5,-6) scale(1,1)"><path d="M 192 497 C 192 487.6111584 243.7111056 480 307.5 480 C 371.2888944 480 423 487.6111584 423 497 C 423 506.3888416 371.2888944 514 307.5 514 C 243.7111056 514 192 506.3888416 192 497 Z" fill="none" stroke="#000000" stroke-miterlimit="10"/></g><g transform="translate(-5,-6) scale(1,1)"><g><path fill="none" stroke="none"/><text fill="#000000" font-family="Arial" font-size="13px" font-style="normal" font-weight="bold" stroke="none" text-decoration="none" x="230.21728515625" y="502.5">Effettuazione pagamento</text></g></g><g transform="translate(-5,-6) scale(1,1)"><path d="M 527 482 L 527 496 L 423 496" fill="none" stroke="#000000" stroke-dasharray="3" stroke-miterlimit="10"/></g><g transform="translate(-5,-6) scale(1,1)"><path d="M 433.16267485762415 491.790482243984 L 423 496 L 433.16267485762415 500.209517756016" fill="none" stroke="#000000" stroke-miterlimit="10"/></g><g transform="translate(-5,-6) scale(1,1)"><g><path fill="none" stroke="none"/><text fill="#000000" font-family="Arial" font-size="13px" font-style="normal" font-weight="normal" stroke="none" text-decoration="none" x="471.5" y="515">«include»</text></g></g><g transform="translate(-5,-6) scale(1,1)"><path d="M 527 447 L 527 419" fill="none" stroke="#000000" stroke-dasharray="3" stroke-miterlimit="10"/></g><g transform="translate(-5,-6) scale(1,1)"><path d="M 531.209517756016 429.16267485762415 L 527 419 L 522.790482243984 429.16267485762415" fill="none" stroke="#000000" stroke-miterlimit="10"/></g><g transform="translate(-5,-6) scale(1,1)"><g><path fill="none" stroke="none"/><text fill="#000000" font-family="Arial" font-size="13px" font-style="normal" font-weight="normal" stroke="none" text-decoration="none" x="463.5" y="443">«include»</text></g></g><g transform="translate(-5,-6) scale(1,1)"><path d="M 215 377 L 120 376 L 95 232" fill="none" stroke="#000000" stroke-miterlimit="10"/></g><g transform="translate(-5,-6) scale(1,1)"><path d="M 443 464 L 72 464 L 72 231" fill="none" stroke="#000000" stroke-miterlimit="10"/></g><g transform="translate(-5,-6) scale(1,1)"><path d="M 79.81022922585227 521.6800000000001 C 79.81022922585227 516.8861679360001 83.69607155079773 513 88.489501953125 513 C 93.28293235545227 513 97.16877468039773 516.8861679360001 97.16877468039773 521.6800000000001 C 97.16877468039773 526.473832064 93.28293235545227 530.36 88.489501953125 530.36 C 83.69607155079773 530.36 79.81022922585227 526.473832064 79.81022922585227 521.6800000000001 Z" fill="#ffffff" stroke="none"/></g><g transform="translate(-5,-6) scale(1,1)"><path d="M 79.81022922585227 521.6800000000001 C 79.81022922585227 516.8861679360001 83.69607155079773 513 88.489501953125 513 C 93.28293235545227 513 97.16877468039773 516.8861679360001 97.16877468039773 521.6800000000001 C 97.16877468039773 526.473832064 93.28293235545227 530.36 88.489501953125 530.36 C 83.69607155079773 530.36 79.81022922585227 526.473832064 79.81022922585227 521.6800000000001 Z" fill="none" stroke="#000000" stroke-miterlimit="10"/></g><g transform="translate(-5,-6) scale(1,1)"><path d="M 88.489501953125 530.36 L 88.489501953125 547.64" fill="none" stroke="#000000" stroke-miterlimit="10"/></g><g transform="translate(-5,-6) scale(1,1)"><path d="M 79.29968377130682 536.84 L 97.67932013494318 536.84" fill="none" stroke="#000000" stroke-miterlimit="10"/></g><g transform="translate(-5,-6) scale(1,1)"><path d="M 88.489501953125 547.64 L 75.72586558948863 565" fill="none" stroke="#000000" stroke-miterlimit="10"/></g><g transform="translate(-5,-6) scale(1,1)"><path d="M 88.489501953125 547.64 L 101.25313831676137 565" fill="none" stroke="#000000" stroke-miterlimit="10"/></g><g transform="translate(-5,-6) scale(1,1)"><g><path fill="none" stroke="none"/><text fill="#000000" font-family="Arial" font-size="13px" font-style="normal" font-weight="bold" stroke="none" text-decoration="none" x="19.5" y="584">Sistema di pagamento</text></g></g><g transform="translate(-5,-6) scale(1,1)"><path d="M 163 533 L 234 515" fill="none" stroke="#000000" stroke-miterlimit="10"/></g><g transform="translate(-5,-6) scale(1,1)"><path d="M 616 400 L 774 400 L 774 215" fill="none" stroke="#000000" stroke-miterlimit="10"/></g><g transform="translate(-5,-6) scale(1,1)"><path d="M 808.0243405539773 433.68 C 808.0243405539773 428.886167936 811.9101828789227 425 816.70361328125 425 C 821.4970436835773 425 825.3828860085227 428.886167936 825.3828860085227 433.68 C 825.3828860085227 438.473832064 821.4970436835773 442.36 816.70361328125 442.36 C 811.9101828789227 442.36 808.0243405539773 438.473832064 808.0243405539773 433.68 Z" fill="#ffffff" stroke="none"/></g><g transform="translate(-5,-6) scale(1,1)"><path d="M 808.0243405539773 433.68 C 808.0243405539773 428.886167936 811.9101828789227 425 816.70361328125 425 C 821.4970436835773 425 825.3828860085227 428.886167936 825.3828860085227 433.68 C 825.3828860085227 438.473832064 821.4970436835773 442.36 816.70361328125 442.36 C 811.9101828789227 442.36 808.0243405539773 438.473832064 808.0243405539773 433.68 Z" fill="none" stroke="#000000" stroke-miterlimit="10"/></g><g transform="translate(-5,-6) scale(1,1)"><path d="M 816.70361328125 442.36 L 816.70361328125 459.64" fill="none" stroke="#000000" stroke-miterlimit="10"/></g><g transform="translate(-5,-6) scale(1,1)"><path d="M 807.5137950994318 448.84 L 825.8934314630682 448.84" fill="none" stroke="#000000" stroke-miterlimit="10"/></g><g transform="translate(-5,-6) scale(1,1)"><path d="M 816.70361328125 459.64 L 803.9399769176136 477" fill="none" stroke="#000000" stroke-miterlimit="10"/></g><g transform="translate(-5,-6) scale(1,1)"><path d="M 816.70361328125 459.64 L 829.4672496448864 477" fill="none" stroke="#000000" stroke-miterlimit="10"/></g><g transform="translate(-5,-6) scale(1,1)"><g><path fill="none" stroke="none"/><text fill="#000000" font-family="Arial" font-size="13px" font-style="normal" font-weight="bold" stroke="none" text-decoration="none" x="740.5" y="496">Responsabile di negozio</text></g></g><g transform="translate(-5,-6) scale(1,1)"><path d="M 807.4093503196023 305.68 C 807.4093503196023 300.886167936 811.2951926445477 297 816.088623046875 297 C 820.8820534492023 297 824.7678957741477 300.886167936 824.7678957741477 305.68 C 824.7678957741477 310.473832064 820.8820534492023 314.36 816.088623046875 314.36 C 811.2951926445477 314.36 807.4093503196023 310.473832064 807.4093503196023 305.68 Z" fill="#ffffff" stroke="none"/></g><g transform="translate(-5,-6) scale(1,1)"><path d="M 807.4093503196023 305.68 C 807.4093503196023 300.886167936 811.2951926445477 297 816.088623046875 297 C 820.8820534492023 297 824.7678957741477 300.886167936 824.7678957741477 305.68 C 824.7678957741477 310.473832064 820.8820534492023 314.36 816.088623046875 314.36 C 811.2951926445477 314.36 807.4093503196023 310.473832064 807.4093503196023 305.68 Z" fill="none" stroke="#000000" stroke-miterlimit="10"/></g><g transform="translate(-5,-6) scale(1,1)"><path d="M 816.088623046875 314.36 L 816.088623046875 331.64" fill="none" stroke="#000000" stroke-miterlimit="10"/></g><g transform="translate(-5,-6) scale(1,1)"><path d="M 806.8988048650568 320.84 L 825.2784412286932 320.84" fill="none" stroke="#000000" stroke-miterlimit="10"/></g><g transform="translate(-5,-6) scale(1,1)"><path d="M 816.088623046875 331.64 L 803.3249866832386 349" fill="none" stroke="#000000" stroke-miterlimit="10"/></g><g transform="translate(-5,-6) scale(1,1)"><path d="M 816.088623046875 331.64 L 828.8522594105114 349" fill="none" stroke="#000000" stroke-miterlimit="10"/></g><g transform="translate(-5,-6) scale(1,1)"><g><path fill="none" stroke="none"/><text fill="#000000" font-family="Arial" font-size="13px" font-style="normal" font-weight="bold" stroke="none" text-decoration="none" x="795.864990234375" y="368">Utente</text></g></g><g transform="translate(-5,-6) scale(1,1)"><path d="M 816 423 L 816 376" fill="none" stroke="#000000" stroke-miterlimit="10"/></g><g transform="translate(-5,-6) scale(1,1)"><path d="M 824.419035512032 396.3253497152483 L 816 376 L 807.580964487968 396.3253497152483" fill="#FFFFFF" stroke="none"/></g><g transform="translate(-5,-6) scale(1,1)"><path d="M 824.419035512032 396.3253497152483 L 816 376 L 807.580964487968 396.3253497152483 L 824.419035512032 396.3253497152483" fill="none" stroke="#000000" stroke-miterlimit="10"/></g><g transform="translate(-5,-6) scale(1,1)"><path d="M 192 496 L 32 496 L 32 184 L 62 184" fill="none" stroke="#000000" stroke-miterlimit="10"/></g><g transform="translate(-5,-6) scale(1,1)"><path d="M 184 585 C 184 575.6111584 264.1410208 568 363 568 C 461.8589792 568 542 575.6111584 542 585 C 542 594.3888416 461.8589792 602 363 602 C 264.1410208 602 184 594.3888416 184 585 Z" fill="#ffffff" stroke="none"/></g><g transform="translate(-5,-6) scale(1,1)"><path d="M 184 585 C 184 575.6111584 264.1410208 568 363 568 C 461.8589792 568 542 575.6111584 542 585 C 542 594.3888416 461.8589792 602 363 602 C 264.1410208 602 184 594.3888416 184 585 Z" fill="none" stroke="#000000" stroke-miterlimit="10"/></g><g transform="translate(-5,-6) scale(1,1)"><g><path fill="none" stroke="none"/><text fill="#000000" font-family="Arial" font-size="13px" font-style="normal" font-weight="bold" stroke="none" text-decoration="none" x="240.918701171875" y="590.5">Effettuazione pagamento con successo</text></g></g><g transform="translate(-5,-6) scale(1,1)"><path d="M 352 545 C 352 535.6111584 432.8125936 528 532.5 528 C 632.1874064 528 713 535.6111584 713 545 C 713 554.3888416 632.1874064 562 532.5 562 C 432.8125936 562 352 554.3888416 352 545 Z" fill="#ffffff" stroke="none"/></g><g transform="translate(-5,-6) scale(1,1)"><path d="M 352 545 C 352 535.6111584 432.8125936 528 532.5 528 C 632.1874064 528 713 535.6111584 713 545 C 713 554.3888416 632.1874064 562 532.5 562 C 432.8125936 562 352 554.3888416 352 545 Z" fill="none" stroke="#000000" stroke-miterlimit="10"/></g><g transform="translate(-5,-6) scale(1,1)"><g><path fill="none" stroke="none"/><text fill="#000000" font-family="Arial" font-size="13px" font-style="normal" font-weight="bold" stroke="none" text-decoration="none" x="409.352294921875" y="550.5">Effettuazione pagamento con fallimento</text></g></g><g transform="translate(-5,-6) scale(1,1)"><path d="M 352 567 L 318 515" fill="none" stroke="#000000" stroke-miterlimit="10"/></g><g transform="translate(-5,-6) scale(1,1)"><path d="M 336.16951158660527 527.4043882841604 L 318 515 L 322.0765577815353 536.619011925937" fill="#FFFFFF" stroke="none"/></g><g transform="translate(-5,-6) scale(1,1)"><path d="M 336.16951158660527 527.4043882841604 L 318 515 L 322.0765577815353 536.619011925937 L 336.16951158660527 527.4043882841604" fill="none" stroke="#000000" stroke-miterlimit="10"/></g><g transform="translate(-5,-6) scale(1,1)"><path d="M 448 527 L 391 515" fill="none" stroke="#000000" stroke-miterlimit="10"/></g><g transform="translate(-5,-6) scale(1,1)"><path d="M 412.62377614944614 510.94878968224987 L 391 515 L 409.15495703782733 527.4256804624392" fill="#FFFFFF" stroke="none"/></g><g transform="translate(-5,-6) scale(1,1)"><path d="M 412.62377614944614 510.94878968224987 L 391 515 L 409.15495703782733 527.4256804624392 L 412.62377614944614 510.94878968224987" fill="none" stroke="#000000" stroke-miterlimit="10"/></g><g transform="translate(-5,-6) scale(1,1)"><path d="M 611 419 L 735 446" fill="none" stroke="#000000" stroke-miterlimit="10"/></g><g transform="translate(-5,-6) scale(1,1)"><path d="M 439 400 L 88 400 L 88 231" fill="none" stroke="#000000" stroke-miterlimit="10"/></g></g></svg>