<?xml version="1.0" encoding="UTF-8" standalone="no"?><svg xmlns="http://www.w3.org/2000/svg" xmlns:xlink="http://www.w3.org/1999/xlink" height="292" version="1.1" width="679.17724609375"><defs/><g><g transform="translate(-5,-6) scale(1,1)"><rect fill="#ffffff" height="272" stroke="none" width="472" x="96" y="16"/></g><g transform="translate(-5,-6) scale(1,1)"><path d="M 96 16 L 568 16 L 568 288 L 96 288 L 96 16 Z Z" fill="none" stroke="#000000" stroke-miterlimit="10"/></g><g transform="translate(-5,-6) scale(1,1)"><g><path fill="none" stroke="none"/><text fill="#000000" font-family="Arial" font-size="13px" font-style="normal" font-weight="bold" stroke="none" text-decoration="none" x="307.4345703125" y="34">Carrello</text></g></g><g transform="translate(-5,-6) scale(1,1)"><path d="M 32.49162571022727 193.68 C 32.49162571022727 188.886167936 36.377468035172726 185 41.1708984375 185 C 45.964328839827274 185 49.85017116477273 188.886167936 49.85017116477273 193.68 C 49.85017116477273 198.47383206400002 45.964328839827274 202.36 41.1708984375 202.36 C 36.377468035172726 202.36 32.49162571022727 198.47383206400002 32.49162571022727 193.68 Z" fill="#ffffff" stroke="none"/></g><g transform="translate(-5,-6) scale(1,1)"><path d="M 32.49162571022727 193.68 C 32.49162571022727 188.886167936 36.377468035172726 185 41.1708984375 185 C 45.964328839827274 185 49.85017116477273 188.886167936 49.85017116477273 193.68 C 49.85017116477273 198.47383206400002 45.964328839827274 202.36 41.1708984375 202.36 C 36.377468035172726 202.36 32.49162571022727 198.47383206400002 32.49162571022727 193.68 Z" fill="none" stroke="#000000" stroke-miterlimit="10"/></g><g transform="translate(-5,-6) scale(1,1)"><path d="M 41.1708984375 202.36 L 41.1708984375 219.64" fill="none" stroke="#000000" stroke-miterlimit="10"/></g><g transform="translate(-5,-6) scale(1,1)"><path d="M 31.981080255681817 208.84 L 50.36071661931818 208.84" fill="none" stroke="#000000" stroke-miterlimit="10"/></g><g transform="translate(-5,-6) scale(1,1)"><path d="M 41.1708984375 219.64 L 28.407262073863635 237" fill="none" stroke="#000000" stroke-miterlimit="10"/></g><g transform="translate(-5,-6) scale(1,1)"><path d="M 41.1708984375 219.64 L 53.934534801136365 237" fill="none" stroke="#000000" stroke-miterlimit="10"/></g><g transform="translate(-5,-6) scale(1,1)"><g><path fill="none" stroke="none"/><text fill="#000000" font-family="Arial" font-size="13px" font-style="normal" font-weight="bold" stroke="none" text-decoration="none" x="19.5" y="256">Cliente</text></g></g><g transform="translate(-5,-6) scale(1,1)"><path d="M 32.40935031960227 41.68 C 32.40935031960227 36.886167936 36.295192644547726 33 41.088623046875 33 C 45.882053449202274 33 49.76789577414773 36.886167936 49.76789577414773 41.68 C 49.76789577414773 46.473832064 45.882053449202274 50.36 41.088623046875 50.36 C 36.295192644547726 50.36 32.40935031960227 46.473832064 32.40935031960227 41.68 Z" fill="#ffffff" stroke="none"/></g><g transform="translate(-5,-6) scale(1,1)"><path d="M 32.40935031960227 41.68 C 32.40935031960227 36.886167936 36.295192644547726 33 41.088623046875 33 C 45.882053449202274 33 49.76789577414773 36.886167936 49.76789577414773 41.68 C 49.76789577414773 46.473832064 45.882053449202274 50.36 41.088623046875 50.36 C 36.295192644547726 50.36 32.40935031960227 46.473832064 32.40935031960227 41.68 Z" fill="none" stroke="#000000" stroke-miterlimit="10"/></g><g transform="translate(-5,-6) scale(1,1)"><path d="M 41.088623046875 50.36 L 41.088623046875 67.64" fill="none" stroke="#000000" stroke-miterlimit="10"/></g><g transform="translate(-5,-6) scale(1,1)"><path d="M 31.898804865056817 56.84 L 50.27844122869318 56.84" fill="none" stroke="#000000" stroke-miterlimit="10"/></g><g transform="translate(-5,-6) scale(1,1)"><path d="M 41.088623046875 67.64 L 28.324986683238635 85" fill="none" stroke="#000000" stroke-miterlimit="10"/></g><g transform="translate(-5,-6) scale(1,1)"><path d="M 41.088623046875 67.64 L 53.852259410511365 85" fill="none" stroke="#000000" stroke-miterlimit="10"/></g><g transform="translate(-5,-6) scale(1,1)"><g><path fill="none" stroke="none"/><text fill="#000000" font-family="Arial" font-size="13px" font-style="normal" font-weight="bold" stroke="none" text-decoration="none" x="20.864990234375" y="104">Utente</text></g></g><g transform="translate(-5,-6) scale(1,1)"><path d="M 41 183 L 41 112" fill="none" stroke="#000000" stroke-miterlimit="10"/></g><g transform="translate(-5,-6) scale(1,1)"><path d="M 49.419035512031975 132.3253497152483 L 41 112 L 32.580964487968025 132.3253497152483" fill="#FFFFFF" stroke="none"/></g><g transform="translate(-5,-6) scale(1,1)"><path d="M 49.419035512031975 132.3253497152483 L 41 112 L 32.580964487968025 132.3253497152483 L 49.419035512031975 132.3253497152483" fill="none" stroke="#000000" stroke-miterlimit="10"/></g><g transform="translate(-5,-6) scale(1,1)"><path d="M 188 63 C 188 53.6111584 251.1278432 46 329 46 C 406.87215679999997 46 470 53.6111584 470 63 C 470 72.3888416 406.87215679999997 80 329 80 C 251.1278432 80 188 72.3888416 188 63 Z" fill="#ffffff" stroke="none"/></g><g transform="translate(-5,-6) scale(1,1)"><path d="M 188 63 C 188 53.6111584 251.1278432 46 329 46 C 406.87215679999997 46 470 53.6111584 470 63 C 470 72.3888416 406.87215679999997 80 329 80 C 251.1278432 80 188 72.3888416 188 63 Z" fill="none" stroke="#000000" stroke-miterlimit="10"/></g><g transform="translate(-5,-6) scale(1,1)"><g><path fill="none" stroke="none"/><text fill="#000000" font-family="Arial" font-size="13px" font-style="normal" font-weight="bold" stroke="none" text-decoration="none" x="233.6708984375" y="68.5">Appoggio prodotto nel carrello</text></g></g><g transform="translate(-5,-6) scale(1,1)"><path d="M 239 185 C 239 175.6111584 279.5182256 168 329.5 168 C 379.4817744 168 420 175.6111584 420 185 C 420 194.3888416 379.4817744 202 329.5 202 C 279.5182256 202 239 194.3888416 239 185 Z" fill="#ffffff" stroke="none"/></g><g transform="translate(-5,-6) scale(1,1)"><path d="M 239 185 C 239 175.6111584 279.5182256 168 329.5 168 C 379.4817744 168 420 175.6111584 420 185 C 420 194.3888416 379.4817744 202 329.5 202 C 279.5182256 202 239 194.3888416 239 185 Z" fill="none" stroke="#000000" stroke-miterlimit="10"/></g><g transform="translate(-5,-6) scale(1,1)"><g><path fill="none" stroke="none"/><text fill="#000000" font-family="Arial" font-size="13px" font-style="normal" font-weight="bold" stroke="none" text-decoration="none" x="269.90185546875" y="190.5">Movimento carrello</text></g></g><g transform="translate(-5,-6) scale(1,1)"><path d="M 620.9093503196023 137.68 C 620.9093503196023 132.886167936 624.7951926445477 129 629.588623046875 129 C 634.3820534492023 129 638.2678957741477 132.886167936 638.2678957741477 137.68 C 638.2678957741477 142.47383206400002 634.3820534492023 146.36 629.588623046875 146.36 C 624.7951926445477 146.36 620.9093503196023 142.47383206400002 620.9093503196023 137.68 Z" fill="#ffffff" stroke="none"/></g><g transform="translate(-5,-6) scale(1,1)"><path d="M 620.9093503196023 137.68 C 620.9093503196023 132.886167936 624.7951926445477 129 629.588623046875 129 C 634.3820534492023 129 638.2678957741477 132.886167936 638.2678957741477 137.68 C 638.2678957741477 142.47383206400002 634.3820534492023 146.36 629.588623046875 146.36 C 624.7951926445477 146.36 620.9093503196023 142.47383206400002 620.9093503196023 137.68 Z" fill="none" stroke="#000000" stroke-miterlimit="10"/></g><g transform="translate(-5,-6) scale(1,1)"><path d="M 629.588623046875 146.36 L 629.588623046875 163.64" fill="none" stroke="#000000" stroke-miterlimit="10"/></g><g transform="translate(-5,-6) scale(1,1)"><path d="M 620.3988048650568 152.84 L 638.7784412286932 152.84" fill="none" stroke="#000000" stroke-miterlimit="10"/></g><g transform="translate(-5,-6) scale(1,1)"><path d="M 629.588623046875 163.64 L 616.8249866832386 181" fill="none" stroke="#000000" stroke-miterlimit="10"/></g><g transform="translate(-5,-6) scale(1,1)"><path d="M 629.588623046875 163.64 L 642.3522594105114 181" fill="none" stroke="#000000" stroke-miterlimit="10"/></g><g transform="translate(-5,-6) scale(1,1)"><g><path fill="none" stroke="none"/><text fill="#000000" font-family="Arial" font-size="13px" font-style="normal" font-weight="bold" stroke="none" text-decoration="none" x="589.5" y="200">Applicazione</text></g></g><g transform="translate(-5,-6) scale(1,1)"><path d="M 620.7711667258523 33.68 C 620.7711667258523 28.886167936 624.6570090507977 25 629.450439453125 25 C 634.2438698554523 25 638.1297121803977 28.886167936 638.1297121803977 33.68 C 638.1297121803977 38.473832064 634.2438698554523 42.36 629.450439453125 42.36 C 624.6570090507977 42.36 620.7711667258523 38.473832064 620.7711667258523 33.68 Z" fill="#ffffff" stroke="none"/></g><g transform="translate(-5,-6) scale(1,1)"><path d="M 620.7711667258523 33.68 C 620.7711667258523 28.886167936 624.6570090507977 25 629.450439453125 25 C 634.2438698554523 25 638.1297121803977 28.886167936 638.1297121803977 33.68 C 638.1297121803977 38.473832064 634.2438698554523 42.36 629.450439453125 42.36 C 624.6570090507977 42.36 620.7711667258523 38.473832064 620.7711667258523 33.68 Z" fill="none" stroke="#000000" stroke-miterlimit="10"/></g><g transform="translate(-5,-6) scale(1,1)"><path d="M 629.450439453125 42.36 L 629.450439453125 59.64" fill="none" stroke="#000000" stroke-miterlimit="10"/></g><g transform="translate(-5,-6) scale(1,1)"><path d="M 620.2606212713068 48.84 L 638.6402576349432 48.84" fill="none" stroke="#000000" stroke-miterlimit="10"/></g><g transform="translate(-5,-6) scale(1,1)"><path d="M 629.450439453125 59.64 L 616.6868030894886 77" fill="none" stroke="#000000" stroke-miterlimit="10"/></g><g transform="translate(-5,-6) scale(1,1)"><path d="M 629.450439453125 59.64 L 642.2140758167614 77" fill="none" stroke="#000000" stroke-miterlimit="10"/></g><g transform="translate(-5,-6) scale(1,1)"><g><path fill="none" stroke="none"/><text fill="#000000" font-family="Arial" font-size="13px" font-style="normal" font-weight="bold" stroke="none" text-decoration="none" x="595.5" y="96">Dashboard</text></g></g><g transform="translate(-5,-6) scale(1,1)"><path d="M 188 257 C 188 247.6111584 251.3517008 240 329.5 240 C 407.6482992 240 471 247.6111584 471 257 C 471 266.3888416 407.6482992 274 329.5 274 C 251.3517008 274 188 266.3888416 188 257 Z" fill="#ffffff" stroke="none"/></g><g transform="translate(-5,-6) scale(1,1)"><path d="M 188 257 C 188 247.6111584 251.3517008 240 329.5 240 C 407.6482992 240 471 247.6111584 471 257 C 471 266.3888416 407.6482992 274 329.5 274 C 251.3517008 274 188 266.3888416 188 257 Z" fill="none" stroke="#000000" stroke-miterlimit="10"/></g><g transform="translate(-5,-6) scale(1,1)"><g><path fill="none" stroke="none"/><text fill="#000000" font-family="Arial" font-size="13px" font-style="normal" font-weight="bold" stroke="none" text-decoration="none" x="233.780517578125" y="262.5">Attivazione allarme movimento</text></g></g><g transform="translate(-5,-6) scale(1,1)"><path d="M 103 137 C 103 127.6111584 204.1836352 120 329 120 C 453.8163648 120 555 127.6111584 555 137 C 555 146.3888416 453.8163648 154 329 154 C 204.1836352 154 103 146.3888416 103 137 Z" fill="#ffffff" stroke="none"/></g><g transform="translate(-5,-6) scale(1,1)"><path d="M 103 137 C 103 127.6111584 204.1836352 120 329 120 C 453.8163648 120 555 127.6111584 555 137 C 555 146.3888416 453.8163648 154 329 154 C 204.1836352 154 103 146.3888416 103 137 Z" fill="none" stroke="#000000" stroke-miterlimit="10"/></g><g transform="translate(-5,-6) scale(1,1)"><g><path fill="none" stroke="none"/><text fill="#000000" font-family="Arial" font-size="13px" font-style="normal" font-weight="bold" stroke="none" text-decoration="none" x="173.701416015625" y="142.5">Attivazione allarme appoggio prodotto nel carrello</text></g></g><g transform="translate(-5,-6) scale(1,1)"><path d="M 329 239 L 329 203" fill="none" stroke="#000000" stroke-dasharray="3" stroke-miterlimit="10"/></g><g transform="translate(-5,-6) scale(1,1)"><path d="M 333.209517756016 213.16267485762415 L 329 203 L 324.790482243984 213.16267485762415" fill="none" stroke="#000000" stroke-miterlimit="10"/></g><g transform="translate(-5,-6) scale(1,1)"><g><path fill="none" stroke="none"/><text fill="#000000" font-family="Arial" font-size="13px" font-style="normal" font-weight="normal" stroke="none" text-decoration="none" x="272.5" y="225">«extend»</text></g></g><g transform="translate(-5,-6) scale(1,1)"><path d="M 329 119 L 329 81" fill="none" stroke="#000000" stroke-dasharray="3" stroke-miterlimit="10"/></g><g transform="translate(-5,-6) scale(1,1)"><path d="M 333.209517756016 91.16267485762415 L 329 81 L 324.790482243984 91.16267485762415" fill="none" stroke="#000000" stroke-miterlimit="10"/></g><g transform="translate(-5,-6) scale(1,1)"><g><path fill="none" stroke="none"/><text fill="#000000" font-family="Arial" font-size="13px" font-style="normal" font-weight="normal" stroke="none" text-decoration="none" x="272.5" y="104">«extend»</text></g></g><g transform="translate(-5,-6) scale(1,1)"><path d="M 187 256 L 144 256 L 68 232" fill="none" stroke="#000000" stroke-miterlimit="10"/></g><g transform="translate(-5,-6) scale(1,1)"><path d="M 208 155 L 120 168 L 68 204" fill="none" stroke="#000000" stroke-miterlimit="10"/></g><g transform="translate(-5,-6) scale(1,1)"><path d="M 471 63 L 590 63" fill="none" stroke="#000000" stroke-miterlimit="10"/></g><g transform="translate(-5,-6) scale(1,1)"><path d="M 441 81 L 584 104 L 600 127" fill="none" stroke="#000000" stroke-miterlimit="10"/></g><g transform="translate(-5,-6) scale(1,1)"><path d="M 61 183 L 120 64 L 187 64" fill="none" stroke="#000000" stroke-miterlimit="10"/></g><g transform="translate(-5,-6) scale(1,1)"><path d="M 68 217 L 216 184 L 238 184" fill="none" stroke="#000000" stroke-miterlimit="10"/></g></g></svg>