<?xml version="1.0" encoding="UTF-8" standalone="no"?><svg xmlns="http://www.w3.org/2000/svg" xmlns:xlink="http://www.w3.org/1999/xlink" height="1116" version="1.1" width="973"><defs/><g><g transform="translate(-6,-14) scale(1,1)"><rect fill="#ffffff" height="1096" stroke="none" width="575" x="192" y="24"/></g><g transform="translate(-6,-14) scale(1,1)"><path d="M 192 24 L 767 24 L 767 1120 L 192 1120 L 192 24 Z Z" fill="none" stroke="#000000" stroke-miterlimit="10"/></g><g transform="translate(-6,-14) scale(1,1)"><g><path fill="none" stroke="none"/><text fill="#000000" font-family="Arial" font-size="13px" font-style="normal" font-weight="bold" stroke="none" text-decoration="none" x="445.549560546875" y="42">Dashboard</text></g></g><g transform="translate(-6,-14) scale(1,1)"><path d="M 102.02434055397727 169.68 C 102.02434055397727 164.886167936 105.91018287892273 161 110.70361328125 161 C 115.49704368357727 161 119.38288600852273 164.886167936 119.38288600852273 169.68 C 119.38288600852273 174.47383206400002 115.49704368357727 178.36 110.70361328125 178.36 C 105.91018287892273 178.36 102.02434055397727 174.47383206400002 102.02434055397727 169.68 Z" fill="#ffffff" stroke="none"/></g><g transform="translate(-6,-14) scale(1,1)"><path d="M 102.02434055397727 169.68 C 102.02434055397727 164.886167936 105.91018287892273 161 110.70361328125 161 C 115.49704368357727 161 119.38288600852273 164.886167936 119.38288600852273 169.68 C 119.38288600852273 174.47383206400002 115.49704368357727 178.36 110.70361328125 178.36 C 105.91018287892273 178.36 102.02434055397727 174.47383206400002 102.02434055397727 169.68 Z" fill="none" stroke="#000000" stroke-miterlimit="10"/></g><g transform="translate(-6,-14) scale(1,1)"><path d="M 110.70361328125 178.36 L 110.70361328125 195.64" fill="none" stroke="#000000" stroke-miterlimit="10"/></g><g transform="translate(-6,-14) scale(1,1)"><path d="M 101.51379509943182 184.84 L 119.89343146306818 184.84" fill="none" stroke="#000000" stroke-miterlimit="10"/></g><g transform="translate(-6,-14) scale(1,1)"><path d="M 110.70361328125 195.64 L 97.93997691761363 213" fill="none" stroke="#000000" stroke-miterlimit="10"/></g><g transform="translate(-6,-14) scale(1,1)"><path d="M 110.70361328125 195.64 L 123.46724964488637 213" fill="none" stroke="#000000" stroke-miterlimit="10"/></g><g transform="translate(-6,-14) scale(1,1)"><g><path fill="none" stroke="none"/><text fill="#000000" font-family="Arial" font-size="13px" font-style="normal" font-weight="bold" stroke="none" text-decoration="none" x="60.858642578125" y="232">Responsabile di</text><text fill="#000000" font-family="Arial" font-size="13px" font-style="normal" font-weight="bold" stroke="none" text-decoration="none" x="86.15087890625" y="245">negozio</text></g></g><g transform="translate(-6,-14) scale(1,1)"><path d="M 101.40935031960227 41.68 C 101.40935031960227 36.886167936 105.29519264454773 33 110.088623046875 33 C 114.88205344920227 33 118.76789577414773 36.886167936 118.76789577414773 41.68 C 118.76789577414773 46.473832064 114.88205344920227 50.36 110.088623046875 50.36 C 105.29519264454773 50.36 101.40935031960227 46.473832064 101.40935031960227 41.68 Z" fill="#ffffff" stroke="none"/></g><g transform="translate(-6,-14) scale(1,1)"><path d="M 101.40935031960227 41.68 C 101.40935031960227 36.886167936 105.29519264454773 33 110.088623046875 33 C 114.88205344920227 33 118.76789577414773 36.886167936 118.76789577414773 41.68 C 118.76789577414773 46.473832064 114.88205344920227 50.36 110.088623046875 50.36 C 105.29519264454773 50.36 101.40935031960227 46.473832064 101.40935031960227 41.68 Z" fill="none" stroke="#000000" stroke-miterlimit="10"/></g><g transform="translate(-6,-14) scale(1,1)"><path d="M 110.088623046875 50.36 L 110.088623046875 67.64" fill="none" stroke="#000000" stroke-miterlimit="10"/></g><g transform="translate(-6,-14) scale(1,1)"><path d="M 100.89880486505682 56.84 L 119.27844122869318 56.84" fill="none" stroke="#000000" stroke-miterlimit="10"/></g><g transform="translate(-6,-14) scale(1,1)"><path d="M 110.088623046875 67.64 L 97.32498668323863 85" fill="none" stroke="#000000" stroke-miterlimit="10"/></g><g transform="translate(-6,-14) scale(1,1)"><path d="M 110.088623046875 67.64 L 122.85225941051137 85" fill="none" stroke="#000000" stroke-miterlimit="10"/></g><g transform="translate(-6,-14) scale(1,1)"><g><path fill="none" stroke="none"/><text fill="#000000" font-family="Arial" font-size="13px" font-style="normal" font-weight="bold" stroke="none" text-decoration="none" x="89.864990234375" y="104">Utente</text></g></g><g transform="translate(-6,-14) scale(1,1)"><path d="M 288 65 C 288 55.6111584 317.7730608 48 354.5 48 C 391.2269392 48 421 55.6111584 421 65 C 421 74.3888416 391.2269392 82 354.5 82 C 317.7730608 82 288 74.3888416 288 65 Z" fill="#ffffff" stroke="none"/></g><g transform="translate(-6,-14) scale(1,1)"><path d="M 288 65 C 288 55.6111584 317.7730608 48 354.5 48 C 391.2269392 48 421 55.6111584 421 65 C 421 74.3888416 391.2269392 82 354.5 82 C 317.7730608 82 288 74.3888416 288 65 Z" fill="none" stroke="#000000" stroke-miterlimit="10"/></g><g transform="translate(-6,-14) scale(1,1)"><g><path fill="none" stroke="none"/><text fill="#000000" font-family="Arial" font-size="13px" font-style="normal" font-weight="bold" stroke="none" text-decoration="none" x="311.878662109375" y="70.5">Registrazione</text></g></g><g transform="translate(-6,-14) scale(1,1)"><path d="M 432 65 C 432 55.6111584 447.4461744 48 466.5 48 C 485.5538256 48 501 55.6111584 501 65 C 501 74.3888416 485.5538256 82 466.5 82 C 447.4461744 82 432 74.3888416 432 65 Z" fill="#ffffff" stroke="none"/></g><g transform="translate(-6,-14) scale(1,1)"><path d="M 432 65 C 432 55.6111584 447.4461744 48 466.5 48 C 485.5538256 48 501 55.6111584 501 65 C 501 74.3888416 485.5538256 82 466.5 82 C 447.4461744 82 432 74.3888416 432 65 Z" fill="none" stroke="#000000" stroke-miterlimit="10"/></g><g transform="translate(-6,-14) scale(1,1)"><g><path fill="none" stroke="none"/><text fill="#000000" font-family="Arial" font-size="13px" font-style="normal" font-weight="bold" stroke="none" text-decoration="none" x="448.812255859375" y="70.5">Login</text></g></g><g transform="translate(-6,-14) scale(1,1)"><path d="M 447 97 C 447 87.6111584 516.395856 80 602 80 C 687.604144 80 757 87.6111584 757 97 C 757 106.3888416 687.604144 114 602 114 C 516.395856 114 447 106.3888416 447 97 Z" fill="#ffffff" stroke="none"/></g><g transform="translate(-6,-14) scale(1,1)"><path d="M 447 97 C 447 87.6111584 516.395856 80 602 80 C 687.604144 80 757 87.6111584 757 97 C 757 106.3888416 687.604144 114 602 114 C 516.395856 114 447 106.3888416 447 97 Z" fill="none" stroke="#000000" stroke-miterlimit="10"/></g><g transform="translate(-6,-14) scale(1,1)"><g><path fill="none" stroke="none"/><text fill="#000000" font-family="Arial" font-size="13px" font-style="normal" font-weight="bold" stroke="none" text-decoration="none" x="496.892333984375" y="102.5">Modifica dei dati e della password</text></g></g><g transform="translate(-6,-14) scale(1,1)"><path d="M 600 137 C 600 127.6111584 635.1456432 120 678.5 120 C 721.8543568 120 757 127.6111584 757 137 C 757 146.3888416 721.8543568 154 678.5 154 C 635.1456432 154 600 146.3888416 600 137 Z" fill="#ffffff" stroke="none"/></g><g transform="translate(-6,-14) scale(1,1)"><path d="M 600 137 C 600 127.6111584 635.1456432 120 678.5 120 C 721.8543568 120 757 127.6111584 757 137 C 757 146.3888416 721.8543568 154 678.5 154 C 635.1456432 154 600 146.3888416 600 137 Z" fill="none" stroke="#000000" stroke-miterlimit="10"/></g><g transform="translate(-6,-14) scale(1,1)"><g><path fill="none" stroke="none"/><text fill="#000000" font-family="Arial" font-size="13px" font-style="normal" font-weight="bold" stroke="none" text-decoration="none" x="627.569580078125" y="142.5">De-registrazione</text></g></g><g transform="translate(-6,-14) scale(1,1)"><path d="M 200 65 C 200 55.6111584 216.78932 48 237.5 48 C 258.21068 48 275 55.6111584 275 65 C 275 74.3888416 258.21068 82 237.5 82 C 216.78932 82 200 74.3888416 200 65 Z" fill="#ffffff" stroke="none"/></g><g transform="translate(-6,-14) scale(1,1)"><path d="M 200 65 C 200 55.6111584 216.78932 48 237.5 48 C 258.21068 48 275 55.6111584 275 65 C 275 74.3888416 258.21068 82 237.5 82 C 216.78932 82 200 74.3888416 200 65 Z" fill="none" stroke="#000000" stroke-miterlimit="10"/></g><g transform="translate(-6,-14) scale(1,1)"><g><path fill="none" stroke="none"/><text fill="#000000" font-family="Arial" font-size="13px" font-style="normal" font-weight="bold" stroke="none" text-decoration="none" x="215.483154296875" y="70.5">Logout</text></g></g><g transform="translate(-6,-14) scale(1,1)"><path d="M 323 83 L 168 172" fill="none" stroke="#000000" stroke-miterlimit="10"/></g><g transform="translate(-6,-14) scale(1,1)"><path d="M 110 159 L 110 112" fill="none" stroke="#000000" stroke-miterlimit="10"/></g><g transform="translate(-6,-14) scale(1,1)"><path d="M 118.41903551203198 132.3253497152483 L 110 112 L 101.58096448796803 132.3253497152483" fill="#FFFFFF" stroke="none"/></g><g transform="translate(-6,-14) scale(1,1)"><path d="M 118.41903551203198 132.3253497152483 L 110 112 L 101.58096448796803 132.3253497152483 L 118.41903551203198 132.3253497152483" fill="none" stroke="#000000" stroke-miterlimit="10"/></g><g transform="translate(-6,-14) scale(1,1)"><path d="M 168 183 L 431 79" fill="none" stroke="#000000" stroke-miterlimit="10"/></g><g transform="translate(-6,-14) scale(1,1)"><path d="M 168 193 L 521 115" fill="none" stroke="#000000" stroke-miterlimit="10"/></g><g transform="translate(-6,-14) scale(1,1)"><path d="M 168 196 L 528 136 L 599 136" fill="none" stroke="#000000" stroke-miterlimit="10"/></g><g transform="translate(-6,-14) scale(1,1)"><path d="M 152 159 L 221 83" fill="none" stroke="#000000" stroke-miterlimit="10"/></g><g transform="translate(-6,-14) scale(1,1)"><path d="M 438 465 C 438 455.6111584 509.4105744 448 597.5 448 C 685.5894256 448 757 455.6111584 757 465 C 757 474.3888416 685.5894256 482 597.5 482 C 509.4105744 482 438 474.3888416 438 465 Z" fill="#ffffff" stroke="none"/></g><g transform="translate(-6,-14) scale(1,1)"><path d="M 438 465 C 438 455.6111584 509.4105744 448 597.5 448 C 685.5894256 448 757 455.6111584 757 465 C 757 474.3888416 685.5894256 482 597.5 482 C 509.4105744 482 438 474.3888416 438 465 Z" fill="none" stroke="#000000" stroke-miterlimit="10"/></g><g transform="translate(-6,-14) scale(1,1)"><g><path fill="none" stroke="none"/><text fill="#000000" font-family="Arial" font-size="13px" font-style="normal" font-weight="bold" stroke="none" text-decoration="none" x="489.129638671875" y="470.5">Associazione carrello ad un cliente</text></g></g><g transform="translate(-6,-14) scale(1,1)"><path d="M 200 241 C 200 231.6111584 252.83039359999998 224 318 224 C 383.1696064 224 436 231.6111584 436 241 C 436 250.3888416 383.1696064 258 318 258 C 252.83039359999998 258 200 250.3888416 200 241 Z" fill="#ffffff" stroke="none"/></g><g transform="translate(-6,-14) scale(1,1)"><path d="M 200 241 C 200 231.6111584 252.83039359999998 224 318 224 C 383.1696064 224 436 231.6111584 436 241 C 436 250.3888416 383.1696064 258 318 258 C 252.83039359999998 258 200 250.3888416 200 241 Z" fill="none" stroke="#000000" stroke-miterlimit="10"/></g><g transform="translate(-6,-14) scale(1,1)"><g><path fill="none" stroke="none"/><text fill="#000000" font-family="Arial" font-size="13px" font-style="normal" font-weight="bold" stroke="none" text-decoration="none" x="238.88916015625" y="246.5">Blocco carrello sbloccato</text></g></g><g transform="translate(-6,-14) scale(1,1)"><path d="M 521 217 C 521 207.6111584 573.8303936 200 639 200 C 704.1696064 200 757 207.6111584 757 217 C 757 226.3888416 704.1696064 234 639 234 C 573.8303936 234 521 226.3888416 521 217 Z" fill="#ffffff" stroke="none"/></g><g transform="translate(-6,-14) scale(1,1)"><path d="M 521 217 C 521 207.6111584 573.8303936 200 639 200 C 704.1696064 200 757 207.6111584 757 217 C 757 226.3888416 704.1696064 234 639 234 C 573.8303936 234 521 226.3888416 521 217 Z" fill="none" stroke="#000000" stroke-miterlimit="10"/></g><g transform="translate(-6,-14) scale(1,1)"><g><path fill="none" stroke="none"/><text fill="#000000" font-family="Arial" font-size="13px" font-style="normal" font-weight="bold" stroke="none" text-decoration="none" x="559.892333984375" y="222.5">Sblocco carrello bloccato</text></g></g><g transform="translate(-6,-14) scale(1,1)"><path d="M 448 609 C 448 599.6111584 484.7126464 592 530 592 C 575.2873536 592 612 599.6111584 612 609 C 612 618.3888416 575.2873536 626 530 626 C 484.7126464 626 448 618.3888416 448 609 Z" fill="#ffffff" stroke="none"/></g><g transform="translate(-6,-14) scale(1,1)"><path d="M 448 609 C 448 599.6111584 484.7126464 592 530 592 C 575.2873536 592 612 599.6111584 612 609 C 612 618.3888416 575.2873536 626 530 626 C 484.7126464 626 448 618.3888416 448 609 Z" fill="none" stroke="#000000" stroke-miterlimit="10"/></g><g transform="translate(-6,-14) scale(1,1)"><g><path fill="none" stroke="none"/><text fill="#000000" font-family="Arial" font-size="13px" font-style="normal" font-weight="bold" stroke="none" text-decoration="none" x="476.54638671875" y="614.5">Aggiunta carrello</text></g></g><g transform="translate(-6,-14) scale(1,1)"><path d="M 580 577 C 580 567.6111584 619.6227952 560 668.5 560 C 717.3772048 560 757 567.6111584 757 577 C 757 586.3888416 717.3772048 594 668.5 594 C 619.6227952 594 580 586.3888416 580 577 Z" fill="#ffffff" stroke="none"/></g><g transform="translate(-6,-14) scale(1,1)"><path d="M 580 577 C 580 567.6111584 619.6227952 560 668.5 560 C 717.3772048 560 757 567.6111584 757 577 C 757 586.3888416 717.3772048 594 668.5 594 C 619.6227952 594 580 586.3888416 580 577 Z" fill="none" stroke="#000000" stroke-miterlimit="10"/></g><g transform="translate(-6,-14) scale(1,1)"><g><path fill="none" stroke="none"/><text fill="#000000" font-family="Arial" font-size="13px" font-style="normal" font-weight="bold" stroke="none" text-decoration="none" x="610.345947265625" y="582.5">Rimozione carrello</text></g></g><g transform="translate(-6,-14) scale(1,1)"><path d="M 448 177 C 448 167.6111584 517.1719984 160 602.5 160 C 687.8280016 160 757 167.6111584 757 177 C 757 186.3888416 687.8280016 194 602.5 194 C 517.1719984 194 448 186.3888416 448 177 Z" fill="#ffffff" stroke="none"/></g><g transform="translate(-6,-14) scale(1,1)"><path d="M 448 177 C 448 167.6111584 517.1719984 160 602.5 160 C 687.8280016 160 757 167.6111584 757 177 C 757 186.3888416 687.8280016 194 602.5 194 C 517.1719984 194 448 186.3888416 448 177 Z" fill="none" stroke="#000000" stroke-miterlimit="10"/></g><g transform="translate(-6,-14) scale(1,1)"><g><path fill="none" stroke="none"/><text fill="#000000" font-family="Arial" font-size="13px" font-style="normal" font-weight="bold" stroke="none" text-decoration="none" x="497.868408203125" y="182.5">Visualizzazione carrelli in negozio</text></g></g><g transform="translate(-6,-14) scale(1,1)"><path d="M 168 208 L 432 216 L 520 216" fill="none" stroke="#000000" stroke-miterlimit="10"/></g><g transform="translate(-6,-14) scale(1,1)"><path d="M 199 240 L 179 240 L 168 235" fill="none" stroke="#000000" stroke-miterlimit="10"/></g><g transform="translate(-6,-14) scale(1,1)"><path d="M 447 176 L 360 176 L 168 199" fill="none" stroke="#000000" stroke-miterlimit="10"/></g><g transform="translate(-6,-14) scale(1,1)"><path d="M 851.3861569602273 205.68 C 851.3861569602273 200.886167936 855.2719992851727 197 860.0654296875 197 C 864.8588600898273 197 868.7447024147727 200.886167936 868.7447024147727 205.68 C 868.7447024147727 210.47383206400002 864.8588600898273 214.36 860.0654296875 214.36 C 855.2719992851727 214.36 851.3861569602273 210.47383206400002 851.3861569602273 205.68 Z" fill="#ffffff" stroke="none"/></g><g transform="translate(-6,-14) scale(1,1)"><path d="M 851.3861569602273 205.68 C 851.3861569602273 200.886167936 855.2719992851727 197 860.0654296875 197 C 864.8588600898273 197 868.7447024147727 200.886167936 868.7447024147727 205.68 C 868.7447024147727 210.47383206400002 864.8588600898273 214.36 860.0654296875 214.36 C 855.2719992851727 214.36 851.3861569602273 210.47383206400002 851.3861569602273 205.68 Z" fill="none" stroke="#000000" stroke-miterlimit="10"/></g><g transform="translate(-6,-14) scale(1,1)"><path d="M 860.0654296875 214.36 L 860.0654296875 231.64" fill="none" stroke="#000000" stroke-miterlimit="10"/></g><g transform="translate(-6,-14) scale(1,1)"><path d="M 850.8756115056818 220.84 L 869.2552478693182 220.84" fill="none" stroke="#000000" stroke-miterlimit="10"/></g><g transform="translate(-6,-14) scale(1,1)"><path d="M 860.0654296875 231.64 L 847.3017933238636 249" fill="none" stroke="#000000" stroke-miterlimit="10"/></g><g transform="translate(-6,-14) scale(1,1)"><path d="M 860.0654296875 231.64 L 872.8290660511364 249" fill="none" stroke="#000000" stroke-miterlimit="10"/></g><g transform="translate(-6,-14) scale(1,1)"><g><path fill="none" stroke="none"/><text fill="#000000" font-family="Arial" font-size="13px" font-style="normal" font-weight="bold" stroke="none" text-decoration="none" x="835.5" y="268">Carrello</text></g></g><g transform="translate(-6,-14) scale(1,1)"><path d="M 758 457 L 776 456 L 844 276" fill="none" stroke="#000000" stroke-miterlimit="10"/></g><g transform="translate(-6,-14) scale(1,1)"><path d="M 436 240 L 831 240" fill="none" stroke="#000000" stroke-miterlimit="10"/></g><g transform="translate(-6,-14) scale(1,1)"><path d="M 757 216 L 831 216" fill="none" stroke="#000000" stroke-miterlimit="10"/></g><g transform="translate(-6,-14) scale(1,1)"><path d="M 101.90935031960227 289.68 C 101.90935031960227 284.886167936 105.79519264454773 281 110.588623046875 281 C 115.38205344920227 281 119.26789577414773 284.886167936 119.26789577414773 289.68 C 119.26789577414773 294.473832064 115.38205344920227 298.36 110.588623046875 298.36 C 105.79519264454773 298.36 101.90935031960227 294.473832064 101.90935031960227 289.68 Z" fill="#ffffff" stroke="none"/></g><g transform="translate(-6,-14) scale(1,1)"><path d="M 101.90935031960227 289.68 C 101.90935031960227 284.886167936 105.79519264454773 281 110.588623046875 281 C 115.38205344920227 281 119.26789577414773 284.886167936 119.26789577414773 289.68 C 119.26789577414773 294.473832064 115.38205344920227 298.36 110.588623046875 298.36 C 105.79519264454773 298.36 101.90935031960227 294.473832064 101.90935031960227 289.68 Z" fill="none" stroke="#000000" stroke-miterlimit="10"/></g><g transform="translate(-6,-14) scale(1,1)"><path d="M 110.588623046875 298.36 L 110.588623046875 315.64" fill="none" stroke="#000000" stroke-miterlimit="10"/></g><g transform="translate(-6,-14) scale(1,1)"><path d="M 101.39880486505682 304.84 L 119.77844122869318 304.84" fill="none" stroke="#000000" stroke-miterlimit="10"/></g><g transform="translate(-6,-14) scale(1,1)"><path d="M 110.588623046875 315.64 L 97.82498668323863 333" fill="none" stroke="#000000" stroke-miterlimit="10"/></g><g transform="translate(-6,-14) scale(1,1)"><path d="M 110.588623046875 315.64 L 123.35225941051137 333" fill="none" stroke="#000000" stroke-miterlimit="10"/></g><g transform="translate(-6,-14) scale(1,1)"><g><path fill="none" stroke="none"/><text fill="#000000" font-family="Arial" font-size="13px" font-style="normal" font-weight="bold" stroke="none" text-decoration="none" x="70.5" y="352">Applicazione</text></g></g><g transform="translate(-6,-14) scale(1,1)"><path d="M 207 320 L 156 319" fill="none" stroke="#000000" stroke-miterlimit="10"/></g><g transform="translate(-6,-14) scale(1,1)"><path d="M 438 464 L 112 464 L 112 359" fill="none" stroke="#000000" stroke-miterlimit="10"/></g><g transform="translate(-6,-14) scale(1,1)"><path d="M 133 682 L 176 592 L 440 588 L 453 591" fill="none" stroke="#000000" stroke-miterlimit="10"/></g><g transform="translate(-6,-14) scale(1,1)"><path d="M 579 577 L 160 576 L 125 682" fill="none" stroke="#000000" stroke-miterlimit="10"/></g><g transform="translate(-6,-14) scale(1,1)"><path d="M 224 617 C 224 607.6111584 271.6816688 600 330.5 600 C 389.3183312 600 437 607.6111584 437 617 C 437 626.3888416 389.3183312 634 330.5 634 C 271.6816688 634 224 626.3888416 224 617 Z" fill="#ffffff" stroke="none"/></g><g transform="translate(-6,-14) scale(1,1)"><path d="M 224 617 C 224 607.6111584 271.6816688 600 330.5 600 C 389.3183312 600 437 607.6111584 437 617 C 437 626.3888416 389.3183312 634 330.5 634 C 271.6816688 634 224 626.3888416 224 617 Z" fill="none" stroke="#000000" stroke-miterlimit="10"/></g><g transform="translate(-6,-14) scale(1,1)"><g><path fill="none" stroke="none"/><text fill="#000000" font-family="Arial" font-size="13px" font-style="normal" font-weight="bold" stroke="none" text-decoration="none" x="259.815673828125" y="622.5">Visualizza allestimento</text></g></g><g transform="translate(-6,-14) scale(1,1)"><path d="M 398 649 C 398 639.6111584 479.26030879999996 632 579.5 632 C 679.7396912 632 761 639.6111584 761 649 C 761 658.3888416 679.7396912 666 579.5 666 C 479.26030879999996 666 398 658.3888416 398 649 Z" fill="#ffffff" stroke="none"/></g><g transform="translate(-6,-14) scale(1,1)"><path d="M 398 649 C 398 639.6111584 479.26030879999996 632 579.5 632 C 679.7396912 632 761 639.6111584 761 649 C 761 658.3888416 679.7396912 666 579.5 666 C 479.26030879999996 666 398 658.3888416 398 649 Z" fill="none" stroke="#000000" stroke-miterlimit="10"/></g><g transform="translate(-6,-14) scale(1,1)"><g><path fill="none" stroke="none"/><text fill="#000000" font-family="Arial" font-size="13px" font-style="normal" font-weight="bold" stroke="none" text-decoration="none" x="455.641357421875" y="654.5">Aggiunta, modifica o rimozione gondola</text></g></g><g transform="translate(-6,-14) scale(1,1)"><path d="M 200 681 C 200 671.6111584 288.423752 664 397.5 664 C 506.576248 664 595 671.6111584 595 681 C 595 690.3888416 506.576248 698 397.5 698 C 288.423752 698 200 690.3888416 200 681 Z" fill="#ffffff" stroke="none"/></g><g transform="translate(-6,-14) scale(1,1)"><path d="M 200 681 C 200 671.6111584 288.423752 664 397.5 664 C 506.576248 664 595 671.6111584 595 681 C 595 690.3888416 506.576248 698 397.5 698 C 288.423752 698 200 690.3888416 200 681 Z" fill="none" stroke="#000000" stroke-miterlimit="10"/></g><g transform="translate(-6,-14) scale(1,1)"><g><path fill="none" stroke="none"/><text fill="#000000" font-family="Arial" font-size="13px" font-style="normal" font-weight="bold" stroke="none" text-decoration="none" x="262.425048828125" y="686.5">Aggiunta, modifica o rimozione scaffalatura</text></g></g><g transform="translate(-6,-14) scale(1,1)"><path d="M 401 721 C 401 711.6111584 481.588736 704 581 704 C 680.411264 704 761 711.6111584 761 721 C 761 730.3888416 680.411264 738 581 738 C 481.588736 738 401 730.3888416 401 721 Z" fill="#ffffff" stroke="none"/></g><g transform="translate(-6,-14) scale(1,1)"><path d="M 401 721 C 401 711.6111584 481.588736 704 581 704 C 680.411264 704 761 711.6111584 761 721 C 761 730.3888416 680.411264 738 581 738 C 481.588736 738 401 730.3888416 401 721 Z" fill="none" stroke="#000000" stroke-miterlimit="10"/></g><g transform="translate(-6,-14) scale(1,1)"><g><path fill="none" stroke="none"/><text fill="#000000" font-family="Arial" font-size="13px" font-style="normal" font-weight="bold" stroke="none" text-decoration="none" x="458.20458984375" y="726.5">Aggiunta, modifica o rimozione scaffale</text></g></g><g transform="translate(-6,-14) scale(1,1)"><path d="M 200 761 C 200 751.6111584 292.6770464 744 407 744 C 521.3229536 744 614 751.6111584 614 761 C 614 770.3888416 521.3229536 778 407 778 C 292.6770464 778 200 770.3888416 200 761 Z" fill="#ffffff" stroke="none"/></g><g transform="translate(-6,-14) scale(1,1)"><path d="M 200 761 C 200 751.6111584 292.6770464 744 407 744 C 521.3229536 744 614 751.6111584 614 761 C 614 770.3888416 521.3229536 778 407 778 C 292.6770464 778 200 770.3888416 200 761 Z" fill="none" stroke="#000000" stroke-miterlimit="10"/></g><g transform="translate(-6,-14) scale(1,1)"><g><path fill="none" stroke="none"/><text fill="#000000" font-family="Arial" font-size="13px" font-style="normal" font-weight="bold" stroke="none" text-decoration="none" x="265.088623046875" y="766.5">Aggiunta, modifica o rimozione fila di prodotti</text></g></g><g transform="translate(-6,-14) scale(1,1)"><path d="M 223 616 L 200 616 L 147 682" fill="none" stroke="#000000" stroke-miterlimit="10"/></g><g transform="translate(-6,-14) scale(1,1)"><path d="M 397 649 L 200 648 L 162 682" fill="none" stroke="#000000" stroke-miterlimit="10"/></g><g transform="translate(-6,-14) scale(1,1)"><path d="M 199 680 L 176 680 L 168 686" fill="none" stroke="#000000" stroke-miterlimit="10"/></g><g transform="translate(-6,-14) scale(1,1)"><path d="M 400 720 L 376 720 L 168 727" fill="none" stroke="#000000" stroke-miterlimit="10"/></g><g transform="translate(-6,-14) scale(1,1)"><path d="M 240 743 L 168 735" fill="none" stroke="#000000" stroke-miterlimit="10"/></g><g transform="translate(-6,-14) scale(1,1)"><path d="M 851.4093503196023 324.68 C 851.4093503196023 319.886167936 855.2951926445477 316 860.088623046875 316 C 864.8820534492023 316 868.7678957741477 319.886167936 868.7678957741477 324.68 C 868.7678957741477 329.473832064 864.8820534492023 333.36 860.088623046875 333.36 C 855.2951926445477 333.36 851.4093503196023 329.473832064 851.4093503196023 324.68 Z" fill="#ffffff" stroke="none"/></g><g transform="translate(-6,-14) scale(1,1)"><path d="M 851.4093503196023 324.68 C 851.4093503196023 319.886167936 855.2951926445477 316 860.088623046875 316 C 864.8820534492023 316 868.7678957741477 319.886167936 868.7678957741477 324.68 C 868.7678957741477 329.473832064 864.8820534492023 333.36 860.088623046875 333.36 C 855.2951926445477 333.36 851.4093503196023 329.473832064 851.4093503196023 324.68 Z" fill="none" stroke="#000000" stroke-miterlimit="10"/></g><g transform="translate(-6,-14) scale(1,1)"><path d="M 860.088623046875 333.36 L 860.088623046875 350.64" fill="none" stroke="#000000" stroke-miterlimit="10"/></g><g transform="translate(-6,-14) scale(1,1)"><path d="M 850.8988048650568 339.84 L 869.2784412286932 339.84" fill="none" stroke="#000000" stroke-miterlimit="10"/></g><g transform="translate(-6,-14) scale(1,1)"><path d="M 860.088623046875 350.64 L 847.3249866832386 368" fill="none" stroke="#000000" stroke-miterlimit="10"/></g><g transform="translate(-6,-14) scale(1,1)"><path d="M 860.088623046875 350.64 L 872.8522594105114 368" fill="none" stroke="#000000" stroke-miterlimit="10"/></g><g transform="translate(-6,-14) scale(1,1)"><g><path fill="none" stroke="none"/><text fill="#000000" font-family="Arial" font-size="13px" font-style="normal" font-weight="bold" stroke="none" text-decoration="none" x="839.864990234375" y="387">Utente</text></g></g><g transform="translate(-6,-14) scale(1,1)"><path d="M 860 434 L 860 395" fill="none" stroke="#000000" stroke-miterlimit="10"/></g><g transform="translate(-6,-14) scale(1,1)"><path d="M 868.419035512032 415.3253497152483 L 860 395 L 851.580964487968 415.3253497152483" fill="#FFFFFF" stroke="none"/></g><g transform="translate(-6,-14) scale(1,1)"><path d="M 868.419035512032 415.3253497152483 L 860 395 L 851.580964487968 415.3253497152483 L 868.419035512032 415.3253497152483" fill="none" stroke="#000000" stroke-miterlimit="10"/></g><g transform="translate(-6,-14) scale(1,1)"><path d="M 852.0243405539773 444.68 C 852.0243405539773 439.886167936 855.9101828789227 436 860.70361328125 436 C 865.4970436835773 436 869.3828860085227 439.886167936 869.3828860085227 444.68 C 869.3828860085227 449.473832064 865.4970436835773 453.36 860.70361328125 453.36 C 855.9101828789227 453.36 852.0243405539773 449.473832064 852.0243405539773 444.68 Z" fill="#ffffff" stroke="none"/></g><g transform="translate(-6,-14) scale(1,1)"><path d="M 852.0243405539773 444.68 C 852.0243405539773 439.886167936 855.9101828789227 436 860.70361328125 436 C 865.4970436835773 436 869.3828860085227 439.886167936 869.3828860085227 444.68 C 869.3828860085227 449.473832064 865.4970436835773 453.36 860.70361328125 453.36 C 855.9101828789227 453.36 852.0243405539773 449.473832064 852.0243405539773 444.68 Z" fill="none" stroke="#000000" stroke-miterlimit="10"/></g><g transform="translate(-6,-14) scale(1,1)"><path d="M 860.70361328125 453.36 L 860.70361328125 470.64" fill="none" stroke="#000000" stroke-miterlimit="10"/></g><g transform="translate(-6,-14) scale(1,1)"><path d="M 851.5137950994318 459.84 L 869.8934314630682 459.84" fill="none" stroke="#000000" stroke-miterlimit="10"/></g><g transform="translate(-6,-14) scale(1,1)"><path d="M 860.70361328125 470.64 L 847.9399769176136 488" fill="none" stroke="#000000" stroke-miterlimit="10"/></g><g transform="translate(-6,-14) scale(1,1)"><path d="M 860.70361328125 470.64 L 873.4672496448864 488" fill="none" stroke="#000000" stroke-miterlimit="10"/></g><g transform="translate(-6,-14) scale(1,1)"><g><path fill="none" stroke="none"/><text fill="#000000" font-family="Arial" font-size="13px" font-style="normal" font-weight="bold" stroke="none" text-decoration="none" x="810.858642578125" y="507">Responsabile di</text><text fill="#000000" font-family="Arial" font-size="13px" font-style="normal" font-weight="bold" stroke="none" text-decoration="none" x="836.15087890625" y="520">negozio</text></g></g><g transform="translate(-6,-14) scale(1,1)"><path d="M 417 801 C 417 791.6111584 492.6638688 784 586 784 C 679.3361312 784 755 791.6111584 755 801 C 755 810.3888416 679.3361312 818 586 818 C 492.6638688 818 417 810.3888416 417 801 Z" fill="#ffffff" stroke="none"/></g><g transform="translate(-6,-14) scale(1,1)"><path d="M 417 801 C 417 791.6111584 492.6638688 784 586 784 C 679.3361312 784 755 791.6111584 755 801 C 755 810.3888416 679.3361312 818 586 818 C 492.6638688 818 417 810.3888416 417 801 Z" fill="none" stroke="#000000" stroke-miterlimit="10"/></g><g transform="translate(-6,-14) scale(1,1)"><g><path fill="none" stroke="none"/><text fill="#000000" font-family="Arial" font-size="13px" font-style="normal" font-weight="bold" stroke="none" text-decoration="none" x="470.79638671875" y="806.5">Visualizzazione procedura d'acquisto</text></g></g><g transform="translate(-6,-14) scale(1,1)"><path d="M 417 800 L 152 800 L 152 775" fill="none" stroke="#000000" stroke-miterlimit="10"/></g><g transform="translate(-6,-14) scale(1,1)"><path d="M 758 464 L 776 464 L 803 469" fill="none" stroke="#000000" stroke-miterlimit="10"/></g><g transform="translate(-6,-14) scale(1,1)"><path d="M 200 385 C 200 375.6111584 260.6654096 368 335.5 368 C 410.3345904 368 471 375.6111584 471 385 C 471 394.3888416 410.3345904 402 335.5 402 C 260.6654096 402 200 394.3888416 200 385 Z" fill="#ffffff" stroke="none"/></g><g transform="translate(-6,-14) scale(1,1)"><path d="M 200 385 C 200 375.6111584 260.6654096 368 335.5 368 C 410.3345904 368 471 375.6111584 471 385 C 471 394.3888416 410.3345904 402 335.5 402 C 260.6654096 402 200 394.3888416 200 385 Z" fill="none" stroke="#000000" stroke-miterlimit="10"/></g><g transform="translate(-6,-14) scale(1,1)"><g><path fill="none" stroke="none"/><text fill="#000000" font-family="Arial" font-size="13px" font-style="normal" font-weight="bold" stroke="none" text-decoration="none" x="244.027099609375" y="390.5">Annulla procedura d'acquisto</text></g></g><g transform="translate(-6,-14) scale(1,1)"><path d="M 208 321 C 208 311.6111584 279.4105744 304 367.5 304 C 455.5894256 304 527 311.6111584 527 321 C 527 330.3888416 455.5894256 338 367.5 338 C 279.4105744 338 208 330.3888416 208 321 Z" fill="#ffffff" stroke="none"/></g><g transform="translate(-6,-14) scale(1,1)"><path d="M 208 321 C 208 311.6111584 279.4105744 304 367.5 304 C 455.5894256 304 527 311.6111584 527 321 C 527 330.3888416 455.5894256 338 367.5 338 C 279.4105744 338 208 330.3888416 208 321 Z" fill="none" stroke="#000000" stroke-miterlimit="10"/></g><g transform="translate(-6,-14) scale(1,1)"><g><path fill="none" stroke="none"/><text fill="#000000" font-family="Arial" font-size="13px" font-style="normal" font-weight="bold" stroke="none" text-decoration="none" x="259.1201171875" y="326.5">Blocco carrello associato al cliente</text></g></g><g transform="translate(-6,-14) scale(1,1)"><path d="M 416 274 C 416 259.6405952 491.2161536 248 584 248 C 676.7838464 248 752 259.6405952 752 274 C 752 288.3594048 676.7838464 300 584 300 C 491.2161536 300 416 288.3594048 416 274 Z" fill="#ffffff" stroke="none"/></g><g transform="translate(-6,-14) scale(1,1)"><path d="M 416 274 C 416 259.6405952 491.2161536 248 584 248 C 676.7838464 248 752 259.6405952 752 274 C 752 288.3594048 676.7838464 300 584 300 C 491.2161536 300 416 288.3594048 416 274 Z" fill="none" stroke="#000000" stroke-miterlimit="10"/></g><g transform="translate(-6,-14) scale(1,1)"><g><path fill="none" stroke="none"/><text fill="#000000" font-family="Arial" font-size="13px" font-style="normal" font-weight="bold" stroke="none" text-decoration="none" x="479.27001953125" y="273">Sollevamento prodotti in catalogo</text><text fill="#000000" font-family="Arial" font-size="13px" font-style="normal" font-weight="bold" stroke="none" text-decoration="none" x="471.306884765625" y="286">nel contenuto del carrello del cliente</text></g></g><g transform="translate(-6,-14) scale(1,1)"><path d="M 340 368 L 340 338" fill="none" stroke="#000000" stroke-dasharray="3" stroke-miterlimit="10"/></g><g transform="translate(-6,-14) scale(1,1)"><path d="M 344.209517756016 348.16267485762415 L 340 338 L 335.790482243984 348.16267485762415" fill="none" stroke="#000000" stroke-miterlimit="10"/></g><g transform="translate(-6,-14) scale(1,1)"><g><path fill="none" stroke="none"/><text fill="#000000" font-family="Arial" font-size="13px" font-style="normal" font-weight="normal" stroke="none" text-decoration="none" x="272.5" y="359">«include»</text></g></g><g transform="translate(-6,-14) scale(1,1)"><path d="M 384 368 L 384 352 L 552 352 L 552 300" fill="none" stroke="#000000" stroke-dasharray="3" stroke-miterlimit="10"/></g><g transform="translate(-6,-14) scale(1,1)"><path d="M 556.209517756016 310.16267485762415 L 552 300 L 547.790482243984 310.16267485762415" fill="none" stroke="#000000" stroke-miterlimit="10"/></g><g transform="translate(-6,-14) scale(1,1)"><g><path fill="none" stroke="none"/><text fill="#000000" font-family="Arial" font-size="13px" font-style="normal" font-weight="normal" stroke="none" text-decoration="none" x="491.5" y="347">«include»</text></g></g><g transform="translate(-6,-14) scale(1,1)"><path d="M 472 385 L 736 384 L 803 436" fill="none" stroke="#000000" stroke-miterlimit="10"/></g><g transform="translate(-6,-14) scale(1,1)"><path d="M 200 384 L 144 384 L 144 359" fill="none" stroke="#000000" stroke-miterlimit="10"/></g><g transform="translate(-6,-14) scale(1,1)"><path d="M 200 545 C 200 535.6111584 302.3029232 528 428.5 528 C 554.6970768 528 657 535.6111584 657 545 C 657 554.3888416 554.6970768 562 428.5 562 C 302.3029232 562 200 554.3888416 200 545 Z" fill="#ffffff" stroke="none"/></g><g transform="translate(-6,-14) scale(1,1)"><path d="M 200 545 C 200 535.6111584 302.3029232 528 428.5 528 C 554.6970768 528 657 535.6111584 657 545 C 657 554.3888416 554.6970768 562 428.5 562 C 302.3029232 562 200 554.3888416 200 545 Z" fill="none" stroke="#000000" stroke-miterlimit="10"/></g><g transform="translate(-6,-14) scale(1,1)"><g><path fill="none" stroke="none"/><text fill="#000000" font-family="Arial" font-size="13px" font-style="normal" font-weight="bold" stroke="none" text-decoration="none" x="271.42724609375" y="550.5">Aggiunta di un prodotto al contenuto di un carrello</text></g></g><g transform="translate(-6,-14) scale(1,1)"><path d="M 252 425 C 252 415.6111584 359.6755056 408 492.5 408 C 625.3244944 408 733 415.6111584 733 425 C 733 434.3888416 625.3244944 442 492.5 442 C 359.6755056 442 252 434.3888416 252 425 Z" fill="#ffffff" stroke="none"/></g><g transform="translate(-6,-14) scale(1,1)"><path d="M 252 425 C 252 415.6111584 359.6755056 408 492.5 408 C 625.3244944 408 733 415.6111584 733 425 C 733 434.3888416 625.3244944 442 492.5 442 C 359.6755056 442 252 434.3888416 252 425 Z" fill="none" stroke="#000000" stroke-miterlimit="10"/></g><g transform="translate(-6,-14) scale(1,1)"><g><path fill="none" stroke="none"/><text fill="#000000" font-family="Arial" font-size="13px" font-style="normal" font-weight="bold" stroke="none" text-decoration="none" x="326.75634765625" y="430.5">Rimozione di un prodotto dal contenuto di un carrello</text></g></g><g transform="translate(-6,-14) scale(1,1)"><path d="M 608 408 L 608 300" fill="none" stroke="#000000" stroke-dasharray="3" stroke-miterlimit="10"/></g><g transform="translate(-6,-14) scale(1,1)"><path d="M 612.209517756016 310.16267485762415 L 608 300 L 603.790482243984 310.16267485762415" fill="none" stroke="#000000" stroke-miterlimit="10"/></g><g transform="translate(-6,-14) scale(1,1)"><g><path fill="none" stroke="none"/><text fill="#000000" font-family="Arial" font-size="13px" font-style="normal" font-weight="normal" stroke="none" text-decoration="none" x="614.5" y="356">«include»</text></g></g><g transform="translate(-6,-14) scale(1,1)"><path d="M 200 544 L 96 544 L 96 359" fill="none" stroke="#000000" stroke-miterlimit="10"/></g><g transform="translate(-6,-14) scale(1,1)"><path d="M 252 424 L 128 424 L 128 359" fill="none" stroke="#000000" stroke-miterlimit="10"/></g><g transform="translate(-6,-14) scale(1,1)"><path d="M 658 544 L 704 544 L 803 504" fill="none" stroke="#000000" stroke-miterlimit="10"/></g><g transform="translate(-6,-14) scale(1,1)"><path d="M 734 424 L 760 424 L 803 449" fill="none" stroke="#000000" stroke-miterlimit="10"/></g><g transform="translate(-6,-14) scale(1,1)"><path d="M 328 304 L 328 258" fill="none" stroke="#000000" stroke-dasharray="3" stroke-miterlimit="10"/></g><g transform="translate(-6,-14) scale(1,1)"><path d="M 332.209517756016 268.16267485762415 L 328 258 L 323.790482243984 268.16267485762415" fill="none" stroke="#000000" stroke-miterlimit="10"/></g><g transform="translate(-6,-14) scale(1,1)"><g><path fill="none" stroke="none"/><text fill="#000000" font-family="Arial" font-size="13px" font-style="normal" font-weight="normal" stroke="none" text-decoration="none" x="334.5" y="290">«extend»</text></g></g><g transform="translate(-6,-14) scale(1,1)"><path d="M 528 321 L 736 320 L 830 256" fill="none" stroke="#000000" stroke-miterlimit="10"/></g><g transform="translate(-6,-14) scale(1,1)"><path d="M 640 301 L 744 351 L 818 434" fill="none" stroke="#000000" stroke-miterlimit="10"/></g><g transform="translate(-6,-14) scale(1,1)"><path d="M 102.02434055397727 692.6800000000001 C 102.02434055397727 687.8861679360001 105.91018287892273 684 110.70361328125 684 C 115.49704368357727 684 119.38288600852273 687.8861679360001 119.38288600852273 692.6800000000001 C 119.38288600852273 697.473832064 115.49704368357727 701.36 110.70361328125 701.36 C 105.91018287892273 701.36 102.02434055397727 697.473832064 102.02434055397727 692.6800000000001 Z" fill="#ffffff" stroke="none"/></g><g transform="translate(-6,-14) scale(1,1)"><path d="M 102.02434055397727 692.6800000000001 C 102.02434055397727 687.8861679360001 105.91018287892273 684 110.70361328125 684 C 115.49704368357727 684 119.38288600852273 687.8861679360001 119.38288600852273 692.6800000000001 C 119.38288600852273 697.473832064 115.49704368357727 701.36 110.70361328125 701.36 C 105.91018287892273 701.36 102.02434055397727 697.473832064 102.02434055397727 692.6800000000001 Z" fill="none" stroke="#000000" stroke-miterlimit="10"/></g><g transform="translate(-6,-14) scale(1,1)"><path d="M 110.70361328125 701.36 L 110.70361328125 718.64" fill="none" stroke="#000000" stroke-miterlimit="10"/></g><g transform="translate(-6,-14) scale(1,1)"><path d="M 101.51379509943182 707.84 L 119.89343146306818 707.84" fill="none" stroke="#000000" stroke-miterlimit="10"/></g><g transform="translate(-6,-14) scale(1,1)"><path d="M 110.70361328125 718.64 L 97.93997691761363 736" fill="none" stroke="#000000" stroke-miterlimit="10"/></g><g transform="translate(-6,-14) scale(1,1)"><path d="M 110.70361328125 718.64 L 123.46724964488637 736" fill="none" stroke="#000000" stroke-miterlimit="10"/></g><g transform="translate(-6,-14) scale(1,1)"><g><path fill="none" stroke="none"/><text fill="#000000" font-family="Arial" font-size="13px" font-style="normal" font-weight="bold" stroke="none" text-decoration="none" x="60.858642578125" y="755">Responsabile di</text><text fill="#000000" font-family="Arial" font-size="13px" font-style="normal" font-weight="bold" stroke="none" text-decoration="none" x="86.15087890625" y="768">negozio</text></g></g><g transform="translate(-6,-14) scale(1,1)"><path d="M 101.40935031960227 564.6800000000001 C 101.40935031960227 559.8861679360001 105.29519264454773 556 110.088623046875 556 C 114.88205344920227 556 118.76789577414773 559.8861679360001 118.76789577414773 564.6800000000001 C 118.76789577414773 569.473832064 114.88205344920227 573.36 110.088623046875 573.36 C 105.29519264454773 573.36 101.40935031960227 569.473832064 101.40935031960227 564.6800000000001 Z" fill="#ffffff" stroke="none"/></g><g transform="translate(-6,-14) scale(1,1)"><path d="M 101.40935031960227 564.6800000000001 C 101.40935031960227 559.8861679360001 105.29519264454773 556 110.088623046875 556 C 114.88205344920227 556 118.76789577414773 559.8861679360001 118.76789577414773 564.6800000000001 C 118.76789577414773 569.473832064 114.88205344920227 573.36 110.088623046875 573.36 C 105.29519264454773 573.36 101.40935031960227 569.473832064 101.40935031960227 564.6800000000001 Z" fill="none" stroke="#000000" stroke-miterlimit="10"/></g><g transform="translate(-6,-14) scale(1,1)"><path d="M 110.088623046875 573.36 L 110.088623046875 590.64" fill="none" stroke="#000000" stroke-miterlimit="10"/></g><g transform="translate(-6,-14) scale(1,1)"><path d="M 100.89880486505682 579.84 L 119.27844122869318 579.84" fill="none" stroke="#000000" stroke-miterlimit="10"/></g><g transform="translate(-6,-14) scale(1,1)"><path d="M 110.088623046875 590.64 L 97.32498668323863 608" fill="none" stroke="#000000" stroke-miterlimit="10"/></g><g transform="translate(-6,-14) scale(1,1)"><path d="M 110.088623046875 590.64 L 122.85225941051137 608" fill="none" stroke="#000000" stroke-miterlimit="10"/></g><g transform="translate(-6,-14) scale(1,1)"><g><path fill="none" stroke="none"/><text fill="#000000" font-family="Arial" font-size="13px" font-style="normal" font-weight="bold" stroke="none" text-decoration="none" x="89.864990234375" y="627">Utente</text></g></g><g transform="translate(-6,-14) scale(1,1)"><path d="M 110 682 L 110 635" fill="none" stroke="#000000" stroke-miterlimit="10"/></g><g transform="translate(-6,-14) scale(1,1)"><path d="M 118.41903551203198 655.3253497152483 L 110 635 L 101.58096448796803 655.3253497152483" fill="#FFFFFF" stroke="none"/></g><g transform="translate(-6,-14) scale(1,1)"><path d="M 118.41903551203198 655.3253497152483 L 110 635 L 101.58096448796803 655.3253497152483 L 118.41903551203198 655.3253497152483" fill="none" stroke="#000000" stroke-miterlimit="10"/></g><g transform="translate(-6,-14) scale(1,1)"><path d="M 200 825 C 200 815.6111584 254.6212544 808 322 808 C 389.3787456 808 444 815.6111584 444 825 C 444 834.3888416 389.3787456 842 322 842 C 254.6212544 842 200 834.3888416 200 825 Z" fill="#ffffff" stroke="none"/></g><g transform="translate(-6,-14) scale(1,1)"><path d="M 200 825 C 200 815.6111584 254.6212544 808 322 808 C 389.3787456 808 444 815.6111584 444 825 C 444 834.3888416 389.3787456 842 322 842 C 254.6212544 842 200 834.3888416 200 825 Z" fill="none" stroke="#000000" stroke-miterlimit="10"/></g><g transform="translate(-6,-14) scale(1,1)"><g><path fill="none" stroke="none"/><text fill="#000000" font-family="Arial" font-size="13px" font-style="normal" font-weight="bold" stroke="none" text-decoration="none" x="240.035888671875" y="830.5">Notifica prodotto restituito</text></g></g><g transform="translate(-6,-14) scale(1,1)"><path d="M 200 824 L 136 824 L 136 775" fill="none" stroke="#000000" stroke-miterlimit="10"/></g><g transform="translate(-6,-14) scale(1,1)"><path d="M 483 849 C 483 839.6111584 545.0085552 832 621.5 832 C 697.9914448 832 760 839.6111584 760 849 C 760 858.3888416 697.9914448 866 621.5 866 C 545.0085552 866 483 858.3888416 483 849 Z" fill="#ffffff" stroke="none"/></g><g transform="translate(-6,-14) scale(1,1)"><path d="M 483 849 C 483 839.6111584 545.0085552 832 621.5 832 C 697.9914448 832 760 839.6111584 760 849 C 760 858.3888416 697.9914448 866 621.5 866 C 545.0085552 866 483 858.3888416 483 849 Z" fill="none" stroke="#000000" stroke-miterlimit="10"/></g><g transform="translate(-6,-14) scale(1,1)"><g><path fill="none" stroke="none"/><text fill="#000000" font-family="Arial" font-size="13px" font-style="normal" font-weight="bold" stroke="none" text-decoration="none" x="527.976806640625" y="854.5">Collocazione a posto prodotto</text></g></g><g transform="translate(-6,-14) scale(1,1)"><path d="M 200 881 C 200 871.6111584 284.8420304 864 389.5 864 C 494.1579696 864 579 871.6111584 579 881 C 579 890.3888416 494.1579696 898 389.5 898 C 284.8420304 898 200 890.3888416 200 881 Z" fill="#ffffff" stroke="none"/></g><g transform="translate(-6,-14) scale(1,1)"><path d="M 200 881 C 200 871.6111584 284.8420304 864 389.5 864 C 494.1579696 864 579 871.6111584 579 881 C 579 890.3888416 494.1579696 898 389.5 898 C 284.8420304 898 200 890.3888416 200 881 Z" fill="none" stroke="#000000" stroke-miterlimit="10"/></g><g transform="translate(-6,-14) scale(1,1)"><g><path fill="none" stroke="none"/><text fill="#000000" font-family="Arial" font-size="13px" font-style="normal" font-weight="bold" stroke="none" text-decoration="none" x="259.86181640625" y="886.5">Collocazione a posto prodotto in catalogo</text></g></g><g transform="translate(-6,-14) scale(1,1)"><path d="M 483 848 L 112 848 L 112 775" fill="none" stroke="#000000" stroke-miterlimit="10"/></g><g transform="translate(-6,-14) scale(1,1)"><path d="M 200 880 L 88 880 L 88 775" fill="none" stroke="#000000" stroke-miterlimit="10"/></g><g transform="translate(-6,-14) scale(1,1)"><path d="M 400 921 C 400 911.6111584 479.69330560000003 904 578 904 C 676.3066944 904 756 911.6111584 756 921 C 756 930.3888416 676.3066944 938 578 938 C 479.69330560000003 938 400 930.3888416 400 921 Z" fill="#ffffff" stroke="none"/></g><g transform="translate(-6,-14) scale(1,1)"><path d="M 400 921 C 400 911.6111584 479.69330560000003 904 578 904 C 676.3066944 904 756 911.6111584 756 921 C 756 930.3888416 676.3066944 938 578 938 C 479.69330560000003 938 400 930.3888416 400 921 Z" fill="none" stroke="#000000" stroke-miterlimit="10"/></g><g transform="translate(-6,-14) scale(1,1)"><g><path fill="none" stroke="none"/><text fill="#000000" font-family="Arial" font-size="13px" font-style="normal" font-weight="bold" stroke="none" text-decoration="none" x="456.762939453125" y="926.5">Visualizza prodotti in catalogo sollevati</text></g></g><g transform="translate(-6,-14) scale(1,1)"><path d="M 200 489 C 200 479.6111584 263.3517008 472 341.5 472 C 419.6482992 472 483 479.6111584 483 489 C 483 498.3888416 419.6482992 506 341.5 506 C 263.3517008 506 200 498.3888416 200 489 Z" fill="#ffffff" stroke="none"/></g><g transform="translate(-6,-14) scale(1,1)"><path d="M 200 489 C 200 479.6111584 263.3517008 472 341.5 472 C 419.6482992 472 483 479.6111584 483 489 C 483 498.3888416 419.6482992 506 341.5 506 C 263.3517008 506 200 498.3888416 200 489 Z" fill="none" stroke="#000000" stroke-miterlimit="10"/></g><g transform="translate(-6,-14) scale(1,1)"><g><path fill="none" stroke="none"/><text fill="#000000" font-family="Arial" font-size="13px" font-style="normal" font-weight="bold" stroke="none" text-decoration="none" x="245.9169921875" y="494.5">Visualizza prodotto in catalogo</text></g></g><g transform="translate(-6,-14) scale(1,1)"><path d="M 200 945 C 200 935.6111584 256.4121152 928 326 928 C 395.5878848 928 452 935.6111584 452 945 C 452 954.3888416 395.5878848 962 326 962 C 256.4121152 962 200 954.3888416 200 945 Z" fill="#ffffff" stroke="none"/></g><g transform="translate(-6,-14) scale(1,1)"><path d="M 200 945 C 200 935.6111584 256.4121152 928 326 928 C 395.5878848 928 452 935.6111584 452 945 C 452 954.3888416 395.5878848 962 326 962 C 256.4121152 962 200 954.3888416 200 945 Z" fill="none" stroke="#000000" stroke-miterlimit="10"/></g><g transform="translate(-6,-14) scale(1,1)"><g><path fill="none" stroke="none"/><text fill="#000000" font-family="Arial" font-size="13px" font-style="normal" font-weight="bold" stroke="none" text-decoration="none" x="241.249267578125" y="950.5">Visualizza prodotti restituiti</text></g></g><g transform="translate(-6,-14) scale(1,1)"><path d="M 756 920 L 816 920 L 816 527" fill="none" stroke="#000000" stroke-miterlimit="10"/></g><g transform="translate(-6,-14) scale(1,1)"><path d="M 484 489 L 776 488 L 803 486" fill="none" stroke="#000000" stroke-miterlimit="10"/></g><g transform="translate(-6,-14) scale(1,1)"><path d="M 452 944 L 860 944 L 860 527" fill="none" stroke="#000000" stroke-miterlimit="10"/></g><g transform="translate(-6,-14) scale(1,1)"><path d="M 496 969 C 496 959.6111584 554.4268336 952 626.5 952 C 698.5731664 952 757 959.6111584 757 969 C 757 978.3888416 698.5731664 986 626.5 986 C 554.4268336 986 496 978.3888416 496 969 Z" fill="#ffffff" stroke="none"/></g><g transform="translate(-6,-14) scale(1,1)"><path d="M 496 969 C 496 959.6111584 554.4268336 952 626.5 952 C 698.5731664 952 757 959.6111584 757 969 C 757 978.3888416 698.5731664 986 626.5 986 C 554.4268336 986 496 978.3888416 496 969 Z" fill="none" stroke="#000000" stroke-miterlimit="10"/></g><g transform="translate(-6,-14) scale(1,1)"><g><path fill="none" stroke="none"/><text fill="#000000" font-family="Arial" font-size="13px" font-style="normal" font-weight="bold" stroke="none" text-decoration="none" x="538.765869140625" y="974.5">Aggiungi o rimuovi prodotto</text></g></g><g transform="translate(-6,-14) scale(1,1)"><path d="M 757 968 L 880 968 L 880 527" fill="none" stroke="#000000" stroke-miterlimit="10"/></g><g transform="translate(-6,-14) scale(1,1)"><path d="M 200 985 C 200 975.6111584 258.4268336 968 330.5 968 C 402.5731664 968 461 975.6111584 461 985 C 461 994.3888416 402.5731664 1002 330.5 1002 C 258.4268336 1002 200 994.3888416 200 985 Z" fill="#ffffff" stroke="none"/></g><g transform="translate(-6,-14) scale(1,1)"><path d="M 200 985 C 200 975.6111584 258.4268336 968 330.5 968 C 402.5731664 968 461 975.6111584 461 985 C 461 994.3888416 402.5731664 1002 330.5 1002 C 258.4268336 1002 200 994.3888416 200 985 Z" fill="none" stroke="#000000" stroke-miterlimit="10"/></g><g transform="translate(-6,-14) scale(1,1)"><g><path fill="none" stroke="none"/><text fill="#000000" font-family="Arial" font-size="13px" font-style="normal" font-weight="bold" stroke="none" text-decoration="none" x="242.75" y="990.5">Aggiungi o rimuovi acquisto</text></g></g><g transform="translate(-6,-14) scale(1,1)"><path d="M 474 1009 C 474 999.6111584 537.3517008 992 615.5 992 C 693.6482992 992 757 999.6111584 757 1009 C 757 1018.3888416 693.6482992 1026 615.5 1026 C 537.3517008 1026 474 1018.3888416 474 1009 Z" fill="#ffffff" stroke="none"/></g><g transform="translate(-6,-14) scale(1,1)"><path d="M 474 1009 C 474 999.6111584 537.3517008 992 615.5 992 C 693.6482992 992 757 999.6111584 757 1009 C 757 1018.3888416 693.6482992 1026 615.5 1026 C 537.3517008 1026 474 1018.3888416 474 1009 Z" fill="none" stroke="#000000" stroke-miterlimit="10"/></g><g transform="translate(-6,-14) scale(1,1)"><g><path fill="none" stroke="none"/><text fill="#000000" font-family="Arial" font-size="13px" font-style="normal" font-weight="bold" stroke="none" text-decoration="none" x="519.805908203125" y="1014.5">Aggiungi o rimuovi pagamento</text></g></g><g transform="translate(-6,-14) scale(1,1)"><path d="M 200 1033 C 200 1023.6111584 265.8141344 1016 347 1016 C 428.1858656 1016 494 1023.6111584 494 1033 C 494 1042.3888416 428.1858656 1050 347 1050 C 265.8141344 1050 200 1042.3888416 200 1033 Z" fill="#ffffff" stroke="none"/></g><g transform="translate(-6,-14) scale(1,1)"><path d="M 200 1033 C 200 1023.6111584 265.8141344 1016 347 1016 C 428.1858656 1016 494 1023.6111584 494 1033 C 494 1042.3888416 428.1858656 1050 347 1050 C 265.8141344 1050 200 1042.3888416 200 1033 Z" fill="none" stroke="#000000" stroke-miterlimit="10"/></g><g transform="translate(-6,-14) scale(1,1)"><g><path fill="none" stroke="none"/><text fill="#000000" font-family="Arial" font-size="13px" font-style="normal" font-weight="bold" stroke="none" text-decoration="none" x="247.41796875" y="1038.5">Visualizza pagamenti per cliente</text></g></g><g transform="translate(-6,-14) scale(1,1)"><path d="M 485 1057 C 485 1047.6111584 545.8892672 1040 621 1040 C 696.1107328 1040 757 1047.6111584 757 1057 C 757 1066.3888416 696.1107328 1074 621 1074 C 545.8892672 1074 485 1066.3888416 485 1057 Z" fill="#ffffff" stroke="none"/></g><g transform="translate(-6,-14) scale(1,1)"><path d="M 485 1057 C 485 1047.6111584 545.8892672 1040 621 1040 C 696.1107328 1040 757 1047.6111584 757 1057 C 757 1066.3888416 696.1107328 1074 621 1074 C 545.8892672 1074 485 1066.3888416 485 1057 Z" fill="none" stroke="#000000" stroke-miterlimit="10"/></g><g transform="translate(-6,-14) scale(1,1)"><g><path fill="none" stroke="none"/><text fill="#000000" font-family="Arial" font-size="13px" font-style="normal" font-weight="bold" stroke="none" text-decoration="none" x="529.362060546875" y="1062.5">Visualizza acquisti per cliente</text></g></g><g transform="translate(-6,-14) scale(1,1)"><path d="M 200 985 L 32 985 L 32 712 L 54 712" fill="none" stroke="#000000" stroke-miterlimit="10"/></g><g transform="translate(-6,-14) scale(1,1)"><path d="M 200 1032 L 16 1032 L 16 692 L 54 692" fill="none" stroke="#000000" stroke-miterlimit="10"/></g><g transform="translate(-6,-14) scale(1,1)"><path d="M 757 1008 L 936 1008 L 936 488 L 917 488" fill="none" stroke="#000000" stroke-miterlimit="10"/></g><g transform="translate(-6,-14) scale(1,1)"><path d="M 757 1057 L 952 1057 L 952 472 L 917 472" fill="none" stroke="#000000" stroke-miterlimit="10"/></g><g transform="translate(-6,-14) scale(1,1)"><path d="M 548 1088 L 968 1088 L 968 456 L 917 456" fill="none" stroke="#000000" stroke-miterlimit="10"/></g><g transform="translate(-6,-14) scale(1,1)"><path d="M 200 1089 C 200 1079.6111584 277.9024448 1072 374 1072 C 470.0975552 1072 548 1079.6111584 548 1089 C 548 1098.3888416 470.0975552 1106 374 1106 C 277.9024448 1106 200 1098.3888416 200 1089 Z" fill="#ffffff" stroke="none"/></g><g transform="translate(-6,-14) scale(1,1)"><path d="M 200 1089 C 200 1079.6111584 277.9024448 1072 374 1072 C 470.0975552 1072 548 1079.6111584 548 1089 C 548 1098.3888416 470.0975552 1106 374 1106 C 277.9024448 1106 200 1098.3888416 200 1089 Z" fill="none" stroke="#000000" stroke-miterlimit="10"/></g><g transform="translate(-6,-14) scale(1,1)"><g><path fill="none" stroke="none"/><text fill="#000000" font-family="Arial" font-size="13px" font-style="normal" font-weight="bold" stroke="none" text-decoration="none" x="255.549560546875" y="1094.5">Notifica prodotto in catalogo sollevato</text></g></g><g transform="translate(-6,-14) scale(1,1)"><path d="M 400 527 L 369 507" fill="none" stroke="#000000" stroke-dasharray="3" stroke-miterlimit="10"/></g><g transform="translate(-6,-14) scale(1,1)"><path d="M 379.82175430438383 508.9722154485628 L 369 507 L 375.2575689353249 516.0467027706042" fill="none" stroke="#000000" stroke-miterlimit="10"/></g><g transform="translate(-6,-14) scale(1,1)"><g><path fill="none" stroke="none"/><text fill="#000000" font-family="Arial" font-size="13px" font-style="normal" font-weight="normal" stroke="none" text-decoration="none" x="407.5" y="522">«include»</text></g></g></g></svg>