<?xml version="1.0" encoding="UTF-8" standalone="no"?><svg xmlns="http://www.w3.org/2000/svg" xmlns:xlink="http://www.w3.org/1999/xlink" height="332" version="1.1" width="677"><defs/><g><g transform="translate(-6,-6) scale(1,1)"><rect fill="#ffffff" height="312" stroke="none" width="472" x="16" y="16"/></g><g transform="translate(-6,-6) scale(1,1)"><path d="M 16 16 L 488 16 L 488 328 L 16 328 L 16 16 Z Z" fill="none" stroke="#000000" stroke-miterlimit="10"/></g><g transform="translate(-6,-6) scale(1,1)"><g><path fill="none" stroke="none"/><text fill="#000000" font-family="Arial" font-size="13px" font-style="normal" font-weight="bold" stroke="none" text-decoration="none" x="218.049560546875" y="34">Dashboard</text></g></g><g transform="translate(-6,-6) scale(1,1)"><path d="M 564.1920651633523 170.68 C 564.1920651633523 165.886167936 568.0779074882977 162 572.871337890625 162 C 577.6647682929523 162 581.5506106178977 165.886167936 581.5506106178977 170.68 C 581.5506106178977 175.47383206400002 577.6647682929523 179.36 572.871337890625 179.36 C 568.0779074882977 179.36 564.1920651633523 175.47383206400002 564.1920651633523 170.68 Z" fill="#ffffff" stroke="none"/></g><g transform="translate(-6,-6) scale(1,1)"><path d="M 564.1920651633523 170.68 C 564.1920651633523 165.886167936 568.0779074882977 162 572.871337890625 162 C 577.6647682929523 162 581.5506106178977 165.886167936 581.5506106178977 170.68 C 581.5506106178977 175.47383206400002 577.6647682929523 179.36 572.871337890625 179.36 C 568.0779074882977 179.36 564.1920651633523 175.47383206400002 564.1920651633523 170.68 Z" fill="none" stroke="#000000" stroke-miterlimit="10"/></g><g transform="translate(-6,-6) scale(1,1)"><path d="M 572.871337890625 179.36 L 572.871337890625 196.64" fill="none" stroke="#000000" stroke-miterlimit="10"/></g><g transform="translate(-6,-6) scale(1,1)"><path d="M 563.6815197088068 185.84 L 582.0611560724432 185.84" fill="none" stroke="#000000" stroke-miterlimit="10"/></g><g transform="translate(-6,-6) scale(1,1)"><path d="M 572.871337890625 196.64 L 560.1077015269886 214" fill="none" stroke="#000000" stroke-miterlimit="10"/></g><g transform="translate(-6,-6) scale(1,1)"><path d="M 572.871337890625 196.64 L 585.6349742542614 214" fill="none" stroke="#000000" stroke-miterlimit="10"/></g><g transform="translate(-6,-6) scale(1,1)"><g><path fill="none" stroke="none"/><text fill="#000000" font-family="Arial" font-size="13px" font-style="normal" font-weight="bold" stroke="none" text-decoration="none" x="520.5" y="233">Amministrazione</text></g></g><g transform="translate(-6,-6) scale(1,1)"><path d="M 24 65 C 24 55.6111584 46.6096176 48 74.5 48 C 102.3903824 48 125 55.6111584 125 65 C 125 74.3888416 102.3903824 82 74.5 82 C 46.6096176 82 24 74.3888416 24 65 Z" fill="#ffffff" stroke="none"/></g><g transform="translate(-6,-6) scale(1,1)"><path d="M 24 65 C 24 55.6111584 46.6096176 48 74.5 48 C 102.3903824 48 125 55.6111584 125 65 C 125 74.3888416 102.3903824 82 74.5 82 C 46.6096176 82 24 74.3888416 24 65 Z" fill="none" stroke="#000000" stroke-miterlimit="10"/></g><g transform="translate(-6,-6) scale(1,1)"><g><path fill="none" stroke="none"/><text fill="#000000" font-family="Arial" font-size="13px" font-style="normal" font-weight="bold" stroke="none" text-decoration="none" x="56.812255859375" y="70.5">Login</text></g></g><g transform="translate(-6,-6) scale(1,1)"><path d="M 140 64 C 140 54.6111584 162.6096176 47 190.5 47 C 218.3903824 47 241 54.6111584 241 64 C 241 73.3888416 218.3903824 81 190.5 81 C 162.6096176 81 140 73.3888416 140 64 Z" fill="#ffffff" stroke="none"/></g><g transform="translate(-6,-6) scale(1,1)"><path d="M 140 64 C 140 54.6111584 162.6096176 47 190.5 47 C 218.3903824 47 241 54.6111584 241 64 C 241 73.3888416 218.3903824 81 190.5 81 C 162.6096176 81 140 73.3888416 140 64 Z" fill="none" stroke="#000000" stroke-miterlimit="10"/></g><g transform="translate(-6,-6) scale(1,1)"><g><path fill="none" stroke="none"/><text fill="#000000" font-family="Arial" font-size="13px" font-style="normal" font-weight="bold" stroke="none" text-decoration="none" x="168.483154296875" y="69.5">Logout</text></g></g><g transform="translate(-6,-6) scale(1,1)"><path d="M 249 64 C 249 54.6111584 299.36796 47 361.5 47 C 423.63204 47 474 54.6111584 474 64 C 474 73.3888416 423.63204 81 361.5 81 C 299.36796 81 249 73.3888416 249 64 Z" fill="#ffffff" stroke="none"/></g><g transform="translate(-6,-6) scale(1,1)"><path d="M 249 64 C 249 54.6111584 299.36796 47 361.5 47 C 423.63204 47 474 54.6111584 474 64 C 474 73.3888416 423.63204 81 361.5 81 C 299.36796 81 249 73.3888416 249 64 Z" fill="none" stroke="#000000" stroke-miterlimit="10"/></g><g transform="translate(-6,-6) scale(1,1)"><g><path fill="none" stroke="none"/><text fill="#000000" font-family="Arial" font-size="13px" font-style="normal" font-weight="bold" stroke="none" text-decoration="none" x="286.372314453125" y="69.5">Modifica della password</text></g></g><g transform="translate(-6,-6) scale(1,1)"><path d="M 475 64 L 504 64 L 552 160" fill="none" stroke="#000000" stroke-miterlimit="10"/></g><g transform="translate(-6,-6) scale(1,1)"><path d="M 242 81 L 268 89 L 496 89 L 545 160" fill="none" stroke="#000000" stroke-miterlimit="10"/></g><g transform="translate(-6,-6) scale(1,1)"><path d="M 126 79 L 228 105 L 460 105 L 525 160" fill="none" stroke="#000000" stroke-miterlimit="10"/></g><g transform="translate(-6,-6) scale(1,1)"><path d="M 24 129 C 24 119.6111584 87.3517008 112 165.5 112 C 243.6482992 112 307 119.6111584 307 129 C 307 138.3888416 243.6482992 146 165.5 146 C 87.3517008 146 24 138.3888416 24 129 Z" fill="#ffffff" stroke="none"/></g><g transform="translate(-6,-6) scale(1,1)"><path d="M 24 129 C 24 119.6111584 87.3517008 112 165.5 112 C 243.6482992 112 307 119.6111584 307 129 C 307 138.3888416 243.6482992 146 165.5 146 C 87.3517008 146 24 138.3888416 24 129 Z" fill="none" stroke="#000000" stroke-miterlimit="10"/></g><g transform="translate(-6,-6) scale(1,1)"><g><path fill="none" stroke="none"/><text fill="#000000" font-family="Arial" font-size="13px" font-style="normal" font-weight="bold" stroke="none" text-decoration="none" x="69.901123046875" y="134.5">Visualizza acquisti per negozio</text></g></g><g transform="translate(-6,-6) scale(1,1)"><path d="M 24 169 C 24 159.6111584 104.588736 152 204 152 C 303.411264 152 384 159.6111584 384 169 C 384 178.3888416 303.411264 186 204 186 C 104.588736 186 24 178.3888416 24 169 Z" fill="#ffffff" stroke="none"/></g><g transform="translate(-6,-6) scale(1,1)"><path d="M 24 169 C 24 159.6111584 104.588736 152 204 152 C 303.411264 152 384 159.6111584 384 169 C 384 178.3888416 303.411264 186 204 186 C 104.588736 186 24 178.3888416 24 169 Z" fill="none" stroke="#000000" stroke-miterlimit="10"/></g><g transform="translate(-6,-6) scale(1,1)"><g><path fill="none" stroke="none"/><text fill="#000000" font-family="Arial" font-size="13px" font-style="normal" font-weight="bold" stroke="none" text-decoration="none" x="81.302978515625" y="174.5">Visualizza acquisti per intervallo di date</text></g></g><g transform="translate(-6,-6) scale(1,1)"><path d="M 24 209 C 24 199.6111584 109.51360319999999 192 215 192 C 320.4863968 192 406 199.6111584 406 209 C 406 218.3888416 320.4863968 226 215 226 C 109.51360319999999 226 24 218.3888416 24 209 Z" fill="#ffffff" stroke="none"/></g><g transform="translate(-6,-6) scale(1,1)"><path d="M 24 209 C 24 199.6111584 109.51360319999999 192 215 192 C 320.4863968 192 406 199.6111584 406 209 C 406 218.3888416 320.4863968 226 215 226 C 109.51360319999999 226 24 218.3888416 24 209 Z" fill="none" stroke="#000000" stroke-miterlimit="10"/></g><g transform="translate(-6,-6) scale(1,1)"><g><path fill="none" stroke="none"/><text fill="#000000" font-family="Arial" font-size="13px" font-style="normal" font-weight="bold" stroke="none" text-decoration="none" x="84.35888671875" y="214.5">Visualizza pagamenti per intervallo di date</text></g></g><g transform="translate(-6,-6) scale(1,1)"><path d="M 308 129 L 456 128 L 515 165" fill="none" stroke="#000000" stroke-miterlimit="10"/></g><g transform="translate(-6,-6) scale(1,1)"><path d="M 385 168 L 464 168 L 515 183" fill="none" stroke="#000000" stroke-miterlimit="10"/></g><g transform="translate(-6,-6) scale(1,1)"><path d="M 406 208 L 516 208" fill="none" stroke="#000000" stroke-miterlimit="10"/></g><g transform="translate(-6,-6) scale(1,1)"><path d="M 563.4093503196023 41.68 C 563.4093503196023 36.886167936 567.2951926445477 33 572.088623046875 33 C 576.8820534492023 33 580.7678957741477 36.886167936 580.7678957741477 41.68 C 580.7678957741477 46.473832064 576.8820534492023 50.36 572.088623046875 50.36 C 567.2951926445477 50.36 563.4093503196023 46.473832064 563.4093503196023 41.68 Z" fill="#ffffff" stroke="none"/></g><g transform="translate(-6,-6) scale(1,1)"><path d="M 563.4093503196023 41.68 C 563.4093503196023 36.886167936 567.2951926445477 33 572.088623046875 33 C 576.8820534492023 33 580.7678957741477 36.886167936 580.7678957741477 41.68 C 580.7678957741477 46.473832064 576.8820534492023 50.36 572.088623046875 50.36 C 567.2951926445477 50.36 563.4093503196023 46.473832064 563.4093503196023 41.68 Z" fill="none" stroke="#000000" stroke-miterlimit="10"/></g><g transform="translate(-6,-6) scale(1,1)"><path d="M 572.088623046875 50.36 L 572.088623046875 67.64" fill="none" stroke="#000000" stroke-miterlimit="10"/></g><g transform="translate(-6,-6) scale(1,1)"><path d="M 562.8988048650568 56.84 L 581.2784412286932 56.84" fill="none" stroke="#000000" stroke-miterlimit="10"/></g><g transform="translate(-6,-6) scale(1,1)"><path d="M 572.088623046875 67.64 L 559.3249866832386 85" fill="none" stroke="#000000" stroke-miterlimit="10"/></g><g transform="translate(-6,-6) scale(1,1)"><path d="M 572.088623046875 67.64 L 584.8522594105114 85" fill="none" stroke="#000000" stroke-miterlimit="10"/></g><g transform="translate(-6,-6) scale(1,1)"><g><path fill="none" stroke="none"/><text fill="#000000" font-family="Arial" font-size="13px" font-style="normal" font-weight="bold" stroke="none" text-decoration="none" x="551.864990234375" y="104">Utente</text></g></g><g transform="translate(-6,-6) scale(1,1)"><path d="M 572 160 L 572 112" fill="none" stroke="#000000" stroke-miterlimit="10"/></g><g transform="translate(-6,-6) scale(1,1)"><path d="M 580.419035512032 132.3253497152483 L 572 112 L 563.580964487968 132.3253497152483" fill="#FFFFFF" stroke="none"/></g><g transform="translate(-6,-6) scale(1,1)"><path d="M 580.419035512032 132.3253497152483 L 572 112 L 563.580964487968 132.3253497152483 L 580.419035512032 132.3253497152483" fill="none" stroke="#000000" stroke-miterlimit="10"/></g><g transform="translate(-6,-6) scale(1,1)"><path d="M 24 249 C 24 239.6111584 124.51206239999999 232 248.5 232 C 372.4879376 232 473 239.6111584 473 249 C 473 258.3888416 372.4879376 266 248.5 266 C 124.51206239999999 266 24 258.3888416 24 249 Z" fill="#ffffff" stroke="none"/></g><g transform="translate(-6,-6) scale(1,1)"><path d="M 24 249 C 24 239.6111584 124.51206239999999 232 248.5 232 C 372.4879376 232 473 239.6111584 473 249 C 473 258.3888416 372.4879376 266 248.5 266 C 124.51206239999999 266 24 258.3888416 24 249 Z" fill="none" stroke="#000000" stroke-miterlimit="10"/></g><g transform="translate(-6,-6) scale(1,1)"><g><path fill="none" stroke="none"/><text fill="#000000" font-family="Arial" font-size="13px" font-style="normal" font-weight="bold" stroke="none" text-decoration="none" x="94.312255859375" y="254.5">Aggiungi, modifica o rimuovi prodotto in catalogo</text></g></g><g transform="translate(-6,-6) scale(1,1)"><path d="M 24 297 C 24 287.6111584 119.8110528 280 238 280 C 356.18894720000003 280 452 287.6111584 452 297 C 452 306.3888416 356.18894720000003 314 238 314 C 119.8110528 314 24 306.3888416 24 297 Z" fill="#ffffff" stroke="none"/></g><g transform="translate(-6,-6) scale(1,1)"><path d="M 24 297 C 24 287.6111584 119.8110528 280 238 280 C 356.18894720000003 280 452 287.6111584 452 297 C 452 306.3888416 356.18894720000003 314 238 314 C 119.8110528 314 24 306.3888416 24 297 Z" fill="none" stroke="#000000" stroke-miterlimit="10"/></g><g transform="translate(-6,-6) scale(1,1)"><g><path fill="none" stroke="none"/><text fill="#000000" font-family="Arial" font-size="13px" font-style="normal" font-weight="bold" stroke="none" text-decoration="none" x="91.042236328125" y="302.5">Aggiungi, modifica o rimuovi tipologia prodotto</text></g></g><g transform="translate(-6,-6) scale(1,1)"><path d="M 473 248 L 656 248 L 656 208 L 630 208" fill="none" stroke="#000000" stroke-miterlimit="10"/></g><g transform="translate(-6,-6) scale(1,1)"><path d="M 452 296 L 672 296 L 672 176 L 630 176" fill="none" stroke="#000000" stroke-miterlimit="10"/></g></g></svg>