<?xml version="1.0" encoding="UTF-8" standalone="no"?><svg xmlns="http://www.w3.org/2000/svg" xmlns:xlink="http://www.w3.org/1999/xlink" height="227" version="1.1" width="591"><defs/><g><g transform="translate(-11,-22) scale(1,1)"><rect fill="#ffffff" height="80" stroke="none" width="488" x="104" y="152"/></g><g transform="translate(-11,-22) scale(1,1)"><path d="M 104 152 L 592 152 L 592 232 L 104 232 L 104 152 Z Z" fill="none" stroke="#000000" stroke-miterlimit="10"/></g><g transform="translate(-11,-22) scale(1,1)"><g><path fill="none" stroke="none"/><text fill="#000000" font-family="Arial" font-size="13px" font-style="normal" font-weight="bold" stroke="none" text-decoration="none" x="321.641357421875" y="170">Gondola</text></g></g><g transform="translate(-11,-22) scale(1,1)"><path d="M 38.49162571022727 169.68 C 38.49162571022727 164.886167936 42.377468035172726 161 47.1708984375 161 C 51.964328839827274 161 55.85017116477273 164.886167936 55.85017116477273 169.68 C 55.85017116477273 174.47383206400002 51.964328839827274 178.36 47.1708984375 178.36 C 42.377468035172726 178.36 38.49162571022727 174.47383206400002 38.49162571022727 169.68 Z" fill="#ffffff" stroke="none"/></g><g transform="translate(-11,-22) scale(1,1)"><path d="M 38.49162571022727 169.68 C 38.49162571022727 164.886167936 42.377468035172726 161 47.1708984375 161 C 51.964328839827274 161 55.85017116477273 164.886167936 55.85017116477273 169.68 C 55.85017116477273 174.47383206400002 51.964328839827274 178.36 47.1708984375 178.36 C 42.377468035172726 178.36 38.49162571022727 174.47383206400002 38.49162571022727 169.68 Z" fill="none" stroke="#000000" stroke-miterlimit="10"/></g><g transform="translate(-11,-22) scale(1,1)"><path d="M 47.1708984375 178.36 L 47.1708984375 195.64" fill="none" stroke="#000000" stroke-miterlimit="10"/></g><g transform="translate(-11,-22) scale(1,1)"><path d="M 37.98108025568182 184.84 L 56.36071661931818 184.84" fill="none" stroke="#000000" stroke-miterlimit="10"/></g><g transform="translate(-11,-22) scale(1,1)"><path d="M 47.1708984375 195.64 L 34.407262073863635 213" fill="none" stroke="#000000" stroke-miterlimit="10"/></g><g transform="translate(-11,-22) scale(1,1)"><path d="M 47.1708984375 195.64 L 59.934534801136365 213" fill="none" stroke="#000000" stroke-miterlimit="10"/></g><g transform="translate(-11,-22) scale(1,1)"><g><path fill="none" stroke="none"/><text fill="#000000" font-family="Arial" font-size="13px" font-style="normal" font-weight="bold" stroke="none" text-decoration="none" x="25.5" y="232">Cliente</text></g></g><g transform="translate(-11,-22) scale(1,1)"><path d="M 38.40935031960227 41.68 C 38.40935031960227 36.886167936 42.295192644547726 33 47.088623046875 33 C 51.882053449202274 33 55.76789577414773 36.886167936 55.76789577414773 41.68 C 55.76789577414773 46.473832064 51.882053449202274 50.36 47.088623046875 50.36 C 42.295192644547726 50.36 38.40935031960227 46.473832064 38.40935031960227 41.68 Z" fill="#ffffff" stroke="none"/></g><g transform="translate(-11,-22) scale(1,1)"><path d="M 38.40935031960227 41.68 C 38.40935031960227 36.886167936 42.295192644547726 33 47.088623046875 33 C 51.882053449202274 33 55.76789577414773 36.886167936 55.76789577414773 41.68 C 55.76789577414773 46.473832064 51.882053449202274 50.36 47.088623046875 50.36 C 42.295192644547726 50.36 38.40935031960227 46.473832064 38.40935031960227 41.68 Z" fill="none" stroke="#000000" stroke-miterlimit="10"/></g><g transform="translate(-11,-22) scale(1,1)"><path d="M 47.088623046875 50.36 L 47.088623046875 67.64" fill="none" stroke="#000000" stroke-miterlimit="10"/></g><g transform="translate(-11,-22) scale(1,1)"><path d="M 37.89880486505682 56.84 L 56.27844122869318 56.84" fill="none" stroke="#000000" stroke-miterlimit="10"/></g><g transform="translate(-11,-22) scale(1,1)"><path d="M 47.088623046875 67.64 L 34.324986683238635 85" fill="none" stroke="#000000" stroke-miterlimit="10"/></g><g transform="translate(-11,-22) scale(1,1)"><path d="M 47.088623046875 67.64 L 59.852259410511365 85" fill="none" stroke="#000000" stroke-miterlimit="10"/></g><g transform="translate(-11,-22) scale(1,1)"><g><path fill="none" stroke="none"/><text fill="#000000" font-family="Arial" font-size="13px" font-style="normal" font-weight="bold" stroke="none" text-decoration="none" x="26.864990234375" y="104">Utente</text></g></g><g transform="translate(-11,-22) scale(1,1)"><path d="M 47 159 L 47 112" fill="none" stroke="#000000" stroke-miterlimit="10"/></g><g transform="translate(-11,-22) scale(1,1)"><path d="M 55.419035512031975 132.3253497152483 L 47 112 L 38.580964487968025 132.3253497152483" fill="#FFFFFF" stroke="none"/></g><g transform="translate(-11,-22) scale(1,1)"><path d="M 55.419035512031975 132.3253497152483 L 47 112 L 38.580964487968025 132.3253497152483 L 55.419035512031975 132.3253497152483" fill="none" stroke="#000000" stroke-miterlimit="10"/></g><g transform="translate(-11,-22) scale(1,1)"><path d="M 120 201 C 120 191.6111584 223.8699264 184 352 184 C 480.1300736 184 584 191.6111584 584 201 C 584 210.3888416 480.1300736 218 352 218 C 223.8699264 218 120 210.3888416 120 201 Z" fill="#ffffff" stroke="none"/></g><g transform="translate(-11,-22) scale(1,1)"><path d="M 120 201 C 120 191.6111584 223.8699264 184 352 184 C 480.1300736 184 584 191.6111584 584 201 C 584 210.3888416 480.1300736 218 352 218 C 223.8699264 218 120 210.3888416 120 201 Z" fill="none" stroke="#000000" stroke-miterlimit="10"/></g><g transform="translate(-11,-22) scale(1,1)"><g><path fill="none" stroke="none"/><text fill="#000000" font-family="Arial" font-size="13px" font-style="normal" font-weight="bold" stroke="none" text-decoration="none" x="192.391357421875" y="206.5">Sollevamento prodotto in catalogo in fila di prodotti</text></g></g><g transform="translate(-11,-22) scale(1,1)"><path d="M 74 199 L 119 199" fill="none" stroke="#000000" stroke-miterlimit="10"/></g></g></svg>