<?xml version="1.0" encoding="UTF-8" standalone="no"?><svg xmlns="http://www.w3.org/2000/svg" xmlns:xlink="http://www.w3.org/1999/xlink" height="251" version="1.1" width="647.17724609375"><defs/><g><g transform="translate(-8,-6) scale(1,1)"><rect fill="#ffffff" height="208" stroke="none" width="448" x="88" y="16"/></g><g transform="translate(-8,-6) scale(1,1)"><path d="M 88 16 L 536 16 L 536 224 L 88 224 L 88 16 Z Z" fill="none" stroke="#000000" stroke-miterlimit="10"/></g><g transform="translate(-8,-6) scale(1,1)"><g><path fill="none" stroke="none"/><text fill="#000000" font-family="Arial" font-size="13px" font-style="normal" font-weight="bold" stroke="none" text-decoration="none" x="241.20458984375" y="34">Sistema di restituzione</text></g></g><g transform="translate(-8,-6) scale(1,1)"><path d="M 35.49162571022727 177.68 C 35.49162571022727 172.886167936 39.377468035172726 169 44.1708984375 169 C 48.964328839827274 169 52.85017116477273 172.886167936 52.85017116477273 177.68 C 52.85017116477273 182.47383206400002 48.964328839827274 186.36 44.1708984375 186.36 C 39.377468035172726 186.36 35.49162571022727 182.47383206400002 35.49162571022727 177.68 Z" fill="#ffffff" stroke="none"/></g><g transform="translate(-8,-6) scale(1,1)"><path d="M 35.49162571022727 177.68 C 35.49162571022727 172.886167936 39.377468035172726 169 44.1708984375 169 C 48.964328839827274 169 52.85017116477273 172.886167936 52.85017116477273 177.68 C 52.85017116477273 182.47383206400002 48.964328839827274 186.36 44.1708984375 186.36 C 39.377468035172726 186.36 35.49162571022727 182.47383206400002 35.49162571022727 177.68 Z" fill="none" stroke="#000000" stroke-miterlimit="10"/></g><g transform="translate(-8,-6) scale(1,1)"><path d="M 44.1708984375 186.36 L 44.1708984375 203.64" fill="none" stroke="#000000" stroke-miterlimit="10"/></g><g transform="translate(-8,-6) scale(1,1)"><path d="M 34.98108025568182 192.84 L 53.36071661931818 192.84" fill="none" stroke="#000000" stroke-miterlimit="10"/></g><g transform="translate(-8,-6) scale(1,1)"><path d="M 44.1708984375 203.64 L 31.407262073863635 221" fill="none" stroke="#000000" stroke-miterlimit="10"/></g><g transform="translate(-8,-6) scale(1,1)"><path d="M 44.1708984375 203.64 L 56.934534801136365 221" fill="none" stroke="#000000" stroke-miterlimit="10"/></g><g transform="translate(-8,-6) scale(1,1)"><g><path fill="none" stroke="none"/><text fill="#000000" font-family="Arial" font-size="13px" font-style="normal" font-weight="bold" stroke="none" text-decoration="none" x="22.5" y="240">Cliente</text></g></g><g transform="translate(-8,-6) scale(1,1)"><path d="M 35.40935031960227 41.68 C 35.40935031960227 36.886167936 39.295192644547726 33 44.088623046875 33 C 48.882053449202274 33 52.76789577414773 36.886167936 52.76789577414773 41.68 C 52.76789577414773 46.473832064 48.882053449202274 50.36 44.088623046875 50.36 C 39.295192644547726 50.36 35.40935031960227 46.473832064 35.40935031960227 41.68 Z" fill="#ffffff" stroke="none"/></g><g transform="translate(-8,-6) scale(1,1)"><path d="M 35.40935031960227 41.68 C 35.40935031960227 36.886167936 39.295192644547726 33 44.088623046875 33 C 48.882053449202274 33 52.76789577414773 36.886167936 52.76789577414773 41.68 C 52.76789577414773 46.473832064 48.882053449202274 50.36 44.088623046875 50.36 C 39.295192644547726 50.36 35.40935031960227 46.473832064 35.40935031960227 41.68 Z" fill="none" stroke="#000000" stroke-miterlimit="10"/></g><g transform="translate(-8,-6) scale(1,1)"><path d="M 44.088623046875 50.36 L 44.088623046875 67.64" fill="none" stroke="#000000" stroke-miterlimit="10"/></g><g transform="translate(-8,-6) scale(1,1)"><path d="M 34.89880486505682 56.84 L 53.27844122869318 56.84" fill="none" stroke="#000000" stroke-miterlimit="10"/></g><g transform="translate(-8,-6) scale(1,1)"><path d="M 44.088623046875 67.64 L 31.324986683238635 85" fill="none" stroke="#000000" stroke-miterlimit="10"/></g><g transform="translate(-8,-6) scale(1,1)"><path d="M 44.088623046875 67.64 L 56.852259410511365 85" fill="none" stroke="#000000" stroke-miterlimit="10"/></g><g transform="translate(-8,-6) scale(1,1)"><g><path fill="none" stroke="none"/><text fill="#000000" font-family="Arial" font-size="13px" font-style="normal" font-weight="bold" stroke="none" text-decoration="none" x="23.864990234375" y="104">Utente</text></g></g><g transform="translate(-8,-6) scale(1,1)"><path d="M 44 167 L 44 112" fill="none" stroke="#000000" stroke-miterlimit="10"/></g><g transform="translate(-8,-6) scale(1,1)"><path d="M 52.419035512031975 132.3253497152483 L 44 112 L 35.580964487968025 132.3253497152483" fill="#FFFFFF" stroke="none"/></g><g transform="translate(-8,-6) scale(1,1)"><path d="M 52.419035512031975 132.3253497152483 L 44 112 L 35.580964487968025 132.3253497152483 L 52.419035512031975 132.3253497152483" fill="none" stroke="#000000" stroke-miterlimit="10"/></g><g transform="translate(-8,-6) scale(1,1)"><path d="M 95 65 C 95 55.6111584 191.70648319999998 48 311 48 C 430.2935168 48 527 55.6111584 527 65 C 527 74.3888416 430.2935168 82 311 82 C 191.70648319999998 82 95 74.3888416 95 65 Z" fill="#ffffff" stroke="none"/></g><g transform="translate(-8,-6) scale(1,1)"><path d="M 95 65 C 95 55.6111584 191.70648319999998 48 311 48 C 430.2935168 48 527 55.6111584 527 65 C 527 74.3888416 430.2935168 82 311 82 C 191.70648319999998 82 95 74.3888416 95 65 Z" fill="none" stroke="#000000" stroke-miterlimit="10"/></g><g transform="translate(-8,-6) scale(1,1)"><g><path fill="none" stroke="none"/><text fill="#000000" font-family="Arial" font-size="13px" font-style="normal" font-weight="bold" stroke="none" text-decoration="none" x="162.563232421875" y="70.5">Inserimento prodotto nel sistema di restituzione</text></g></g><g transform="translate(-8,-6) scale(1,1)"><path d="M 210 113 C 210 103.6111584 255.4430928 96 311.5 96 C 367.5569072 96 413 103.6111584 413 113 C 413 122.3888416 367.5569072 130 311.5 130 C 255.4430928 130 210 122.3888416 210 113 Z" fill="#ffffff" stroke="none"/></g><g transform="translate(-8,-6) scale(1,1)"><path d="M 210 113 C 210 103.6111584 255.4430928 96 311.5 96 C 367.5569072 96 413 103.6111584 413 113 C 413 122.3888416 367.5569072 130 311.5 130 C 255.4430928 130 210 122.3888416 210 113 Z" fill="none" stroke="#000000" stroke-miterlimit="10"/></g><g transform="translate(-8,-6) scale(1,1)"><g><path fill="none" stroke="none"/><text fill="#000000" font-family="Arial" font-size="13px" font-style="normal" font-weight="bold" stroke="none" text-decoration="none" x="244.341796875" y="118.5">Restituzione prodotto</text></g></g><g transform="translate(-8,-6) scale(1,1)"><path d="M 66 167 L 104 96 L 191 83" fill="none" stroke="#000000" stroke-miterlimit="10"/></g><g transform="translate(-8,-6) scale(1,1)"><path d="M 168 191 C 168 181.6111584 232.2471312 174 311.5 174 C 390.7528688 174 455 181.6111584 455 191 C 455 200.3888416 390.7528688 208 311.5 208 C 232.2471312 208 168 200.3888416 168 191 Z" fill="#ffffff" stroke="none"/></g><g transform="translate(-8,-6) scale(1,1)"><path d="M 168 191 C 168 181.6111584 232.2471312 174 311.5 174 C 390.7528688 174 455 181.6111584 455 191 C 455 200.3888416 390.7528688 208 311.5 208 C 232.2471312 208 168 200.3888416 168 191 Z" fill="none" stroke="#000000" stroke-miterlimit="10"/></g><g transform="translate(-8,-6) scale(1,1)"><g><path fill="none" stroke="none"/><text fill="#000000" font-family="Arial" font-size="13px" font-style="normal" font-weight="bold" stroke="none" text-decoration="none" x="214.36181640625" y="196.5">Conferma restituzione prodotto</text></g></g><g transform="translate(-8,-6) scale(1,1)"><path d="M 311 131 L 311 173" fill="none" stroke="#000000" stroke-dasharray="3" stroke-miterlimit="10"/></g><g transform="translate(-8,-6) scale(1,1)"><path d="M 306.790482243984 162.83732514237585 L 311 173 L 315.209517756016 162.83732514237585" fill="none" stroke="#000000" stroke-miterlimit="10"/></g><g transform="translate(-8,-6) scale(1,1)"><g><path fill="none" stroke="none"/><text fill="#000000" font-family="Arial" font-size="13px" font-style="normal" font-weight="normal" stroke="none" text-decoration="none" x="312.5" y="156">«include»</text></g></g><g transform="translate(-8,-6) scale(1,1)"><path d="M 71 205 L 167 200" fill="none" stroke="#000000" stroke-miterlimit="10"/></g><g transform="translate(-8,-6) scale(1,1)"><path d="M 591.9093503196023 41.68 C 591.9093503196023 36.886167936 595.7951926445477 33 600.588623046875 33 C 605.3820534492023 33 609.2678957741477 36.886167936 609.2678957741477 41.68 C 609.2678957741477 46.473832064 605.3820534492023 50.36 600.588623046875 50.36 C 595.7951926445477 50.36 591.9093503196023 46.473832064 591.9093503196023 41.68 Z" fill="#ffffff" stroke="none"/></g><g transform="translate(-8,-6) scale(1,1)"><path d="M 591.9093503196023 41.68 C 591.9093503196023 36.886167936 595.7951926445477 33 600.588623046875 33 C 605.3820534492023 33 609.2678957741477 36.886167936 609.2678957741477 41.68 C 609.2678957741477 46.473832064 605.3820534492023 50.36 600.588623046875 50.36 C 595.7951926445477 50.36 591.9093503196023 46.473832064 591.9093503196023 41.68 Z" fill="none" stroke="#000000" stroke-miterlimit="10"/></g><g transform="translate(-8,-6) scale(1,1)"><path d="M 600.588623046875 50.36 L 600.588623046875 67.64" fill="none" stroke="#000000" stroke-miterlimit="10"/></g><g transform="translate(-8,-6) scale(1,1)"><path d="M 591.3988048650568 56.84 L 609.7784412286932 56.84" fill="none" stroke="#000000" stroke-miterlimit="10"/></g><g transform="translate(-8,-6) scale(1,1)"><path d="M 600.588623046875 67.64 L 587.8249866832386 85" fill="none" stroke="#000000" stroke-miterlimit="10"/></g><g transform="translate(-8,-6) scale(1,1)"><path d="M 600.588623046875 67.64 L 613.3522594105114 85" fill="none" stroke="#000000" stroke-miterlimit="10"/></g><g transform="translate(-8,-6) scale(1,1)"><g><path fill="none" stroke="none"/><text fill="#000000" font-family="Arial" font-size="13px" font-style="normal" font-weight="bold" stroke="none" text-decoration="none" x="560.5" y="104">Applicazione</text></g></g><g transform="translate(-8,-6) scale(1,1)"><path d="M 591.7711667258523 129.68 C 591.7711667258523 124.886167936 595.6570090507977 121 600.450439453125 121 C 605.2438698554523 121 609.1297121803977 124.886167936 609.1297121803977 129.68 C 609.1297121803977 134.47383206400002 605.2438698554523 138.36 600.450439453125 138.36 C 595.6570090507977 138.36 591.7711667258523 134.47383206400002 591.7711667258523 129.68 Z" fill="#ffffff" stroke="none"/></g><g transform="translate(-8,-6) scale(1,1)"><path d="M 591.7711667258523 129.68 C 591.7711667258523 124.886167936 595.6570090507977 121 600.450439453125 121 C 605.2438698554523 121 609.1297121803977 124.886167936 609.1297121803977 129.68 C 609.1297121803977 134.47383206400002 605.2438698554523 138.36 600.450439453125 138.36 C 595.6570090507977 138.36 591.7711667258523 134.47383206400002 591.7711667258523 129.68 Z" fill="none" stroke="#000000" stroke-miterlimit="10"/></g><g transform="translate(-8,-6) scale(1,1)"><path d="M 600.450439453125 138.36 L 600.450439453125 155.64" fill="none" stroke="#000000" stroke-miterlimit="10"/></g><g transform="translate(-8,-6) scale(1,1)"><path d="M 591.2606212713068 144.84 L 609.6402576349432 144.84" fill="none" stroke="#000000" stroke-miterlimit="10"/></g><g transform="translate(-8,-6) scale(1,1)"><path d="M 600.450439453125 155.64 L 587.6868030894886 173" fill="none" stroke="#000000" stroke-miterlimit="10"/></g><g transform="translate(-8,-6) scale(1,1)"><path d="M 600.450439453125 155.64 L 613.2140758167614 173" fill="none" stroke="#000000" stroke-miterlimit="10"/></g><g transform="translate(-8,-6) scale(1,1)"><g><path fill="none" stroke="none"/><text fill="#000000" font-family="Arial" font-size="13px" font-style="normal" font-weight="bold" stroke="none" text-decoration="none" x="566.5" y="192">Dashboard</text></g></g><g transform="translate(-8,-6) scale(1,1)"><path d="M 71 197 L 260 131" fill="none" stroke="#000000" stroke-miterlimit="10"/></g><g transform="translate(-8,-6) scale(1,1)"><path d="M 414 98 L 555 78" fill="none" stroke="#000000" stroke-miterlimit="10"/></g><g transform="translate(-8,-6) scale(1,1)"><path d="M 414 129 L 561 153" fill="none" stroke="#000000" stroke-miterlimit="10"/></g></g></svg>