<?xml version="1.0" encoding="UTF-8" standalone="no"?><svg xmlns="http://www.w3.org/2000/svg" xmlns:xlink="http://www.w3.org/1999/xlink" height="331" version="1.1" width="412"><defs/><g><g transform="translate(-6,-6) scale(1,1)"><rect fill="#ffffff" height="160" stroke="none" width="240" x="168" y="64"/></g><g transform="translate(-6,-6) scale(1,1)"><path d="M 168 64 L 408 64 L 408 224 L 168 224 L 168 64 Z Z" fill="none" stroke="#000000" stroke-miterlimit="10"/></g><g transform="translate(-6,-6) scale(1,1)"><g><path fill="none" stroke="none"/><text fill="#000000" font-family="Arial" font-size="13px" font-style="normal" font-weight="bold" stroke="none" text-decoration="none" x="215.3955078125" y="82">Sistema antitaccheggio</text></g></g><g transform="translate(-6,-6) scale(1,1)"><path d="M 111.49162571022728 161.68 C 111.49162571022728 156.886167936 115.37746803517274 153 120.1708984375 153 C 124.96432883982726 153 128.85017116477272 156.886167936 128.85017116477272 161.68 C 128.85017116477272 166.47383206400002 124.96432883982726 170.36 120.1708984375 170.36 C 115.37746803517274 170.36 111.49162571022728 166.47383206400002 111.49162571022728 161.68 Z" fill="#ffffff" stroke="none"/></g><g transform="translate(-6,-6) scale(1,1)"><path d="M 111.49162571022728 161.68 C 111.49162571022728 156.886167936 115.37746803517274 153 120.1708984375 153 C 124.96432883982726 153 128.85017116477272 156.886167936 128.85017116477272 161.68 C 128.85017116477272 166.47383206400002 124.96432883982726 170.36 120.1708984375 170.36 C 115.37746803517274 170.36 111.49162571022728 166.47383206400002 111.49162571022728 161.68 Z" fill="none" stroke="#000000" stroke-miterlimit="10"/></g><g transform="translate(-6,-6) scale(1,1)"><path d="M 120.1708984375 170.36 L 120.1708984375 187.64" fill="none" stroke="#000000" stroke-miterlimit="10"/></g><g transform="translate(-6,-6) scale(1,1)"><path d="M 110.98108025568183 176.84 L 129.36071661931817 176.84" fill="none" stroke="#000000" stroke-miterlimit="10"/></g><g transform="translate(-6,-6) scale(1,1)"><path d="M 120.1708984375 187.64 L 107.40726207386365 205" fill="none" stroke="#000000" stroke-miterlimit="10"/></g><g transform="translate(-6,-6) scale(1,1)"><path d="M 120.1708984375 187.64 L 132.93453480113635 205" fill="none" stroke="#000000" stroke-miterlimit="10"/></g><g transform="translate(-6,-6) scale(1,1)"><g><path fill="none" stroke="none"/><text fill="#000000" font-family="Arial" font-size="13px" font-style="normal" font-weight="bold" stroke="none" text-decoration="none" x="98.5" y="224">Cliente</text></g></g><g transform="translate(-6,-6) scale(1,1)"><path d="M 111.40935031960228 25.68 C 111.40935031960228 20.886167936 115.29519264454774 17 120.088623046875 17 C 124.88205344920226 17 128.76789577414772 20.886167936 128.76789577414772 25.68 C 128.76789577414772 30.473832064 124.88205344920226 34.36 120.088623046875 34.36 C 115.29519264454774 34.36 111.40935031960228 30.473832064 111.40935031960228 25.68 Z" fill="#ffffff" stroke="none"/></g><g transform="translate(-6,-6) scale(1,1)"><path d="M 111.40935031960228 25.68 C 111.40935031960228 20.886167936 115.29519264454774 17 120.088623046875 17 C 124.88205344920226 17 128.76789577414772 20.886167936 128.76789577414772 25.68 C 128.76789577414772 30.473832064 124.88205344920226 34.36 120.088623046875 34.36 C 115.29519264454774 34.36 111.40935031960228 30.473832064 111.40935031960228 25.68 Z" fill="none" stroke="#000000" stroke-miterlimit="10"/></g><g transform="translate(-6,-6) scale(1,1)"><path d="M 120.088623046875 34.36 L 120.088623046875 51.64" fill="none" stroke="#000000" stroke-miterlimit="10"/></g><g transform="translate(-6,-6) scale(1,1)"><path d="M 110.89880486505683 40.84 L 129.27844122869317 40.84" fill="none" stroke="#000000" stroke-miterlimit="10"/></g><g transform="translate(-6,-6) scale(1,1)"><path d="M 120.088623046875 51.64 L 107.32498668323865 69" fill="none" stroke="#000000" stroke-miterlimit="10"/></g><g transform="translate(-6,-6) scale(1,1)"><path d="M 120.088623046875 51.64 L 132.85225941051135 69" fill="none" stroke="#000000" stroke-miterlimit="10"/></g><g transform="translate(-6,-6) scale(1,1)"><g><path fill="none" stroke="none"/><text fill="#000000" font-family="Arial" font-size="13px" font-style="normal" font-weight="bold" stroke="none" text-decoration="none" x="99.864990234375" y="88">Utente</text></g></g><g transform="translate(-6,-6) scale(1,1)"><path d="M 120 151 L 120 96" fill="none" stroke="#000000" stroke-miterlimit="10"/></g><g transform="translate(-6,-6) scale(1,1)"><path d="M 128.41903551203197 116.32534971524831 L 120 96 L 111.58096448796803 116.32534971524831" fill="#FFFFFF" stroke="none"/></g><g transform="translate(-6,-6) scale(1,1)"><path d="M 128.41903551203197 116.32534971524831 L 120 96 L 111.58096448796803 116.32534971524831 L 128.41903551203197 116.32534971524831" fill="none" stroke="#000000" stroke-miterlimit="10"/></g><g transform="translate(-6,-6) scale(1,1)"><path d="M 178 121 C 178 111.6111584 227.9202448 104 289.5 104 C 351.0797552 104 401 111.6111584 401 121 C 401 130.3888416 351.0797552 138 289.5 138 C 227.9202448 138 178 130.3888416 178 121 Z" fill="#ffffff" stroke="none"/></g><g transform="translate(-6,-6) scale(1,1)"><path d="M 178 121 C 178 111.6111584 227.9202448 104 289.5 104 C 351.0797552 104 401 111.6111584 401 121 C 401 130.3888416 351.0797552 138 289.5 138 C 227.9202448 138 178 130.3888416 178 121 Z" fill="none" stroke="#000000" stroke-miterlimit="10"/></g><g transform="translate(-6,-6) scale(1,1)"><g><path fill="none" stroke="none"/><text fill="#000000" font-family="Arial" font-size="13px" font-style="normal" font-weight="bold" stroke="none" text-decoration="none" x="214.988037109375" y="126.5">Avvicinamento prodotto</text></g></g><g transform="translate(-6,-6) scale(1,1)"><path d="M 199 191 C 199 181.6111584 239.294368 174 289 174 C 338.705632 174 379 181.6111584 379 191 C 379 200.3888416 338.705632 208 289 208 C 239.294368 208 199 200.3888416 199 191 Z" fill="#ffffff" stroke="none"/></g><g transform="translate(-6,-6) scale(1,1)"><path d="M 199 191 C 199 181.6111584 239.294368 174 289 174 C 338.705632 174 379 181.6111584 379 191 C 379 200.3888416 338.705632 208 289 208 C 239.294368 208 199 200.3888416 199 191 Z" fill="none" stroke="#000000" stroke-miterlimit="10"/></g><g transform="translate(-6,-6) scale(1,1)"><g><path fill="none" stroke="none"/><text fill="#000000" font-family="Arial" font-size="13px" font-style="normal" font-weight="bold" stroke="none" text-decoration="none" x="229.75732421875" y="196.5">Attivazione allarme</text></g></g><g transform="translate(-6,-6) scale(1,1)"><path d="M 198 191 L 147 191" fill="none" stroke="#000000" stroke-miterlimit="10"/></g><g transform="translate(-6,-6) scale(1,1)"><path d="M 289 173 L 289 139" fill="none" stroke="#000000" stroke-dasharray="3" stroke-miterlimit="10"/></g><g transform="translate(-6,-6) scale(1,1)"><path d="M 293.209517756016 149.16267485762415 L 289 139 L 284.790482243984 149.16267485762415" fill="none" stroke="#000000" stroke-miterlimit="10"/></g><g transform="translate(-6,-6) scale(1,1)"><g><path fill="none" stroke="none"/><text fill="#000000" font-family="Arial" font-size="13px" font-style="normal" font-weight="normal" stroke="none" text-decoration="none" x="295.5" y="162">«extend»</text></g></g><g transform="translate(-6,-6) scale(1,1)"><path d="M 147 180 L 246 139" fill="none" stroke="#000000" stroke-miterlimit="10"/></g><g transform="translate(-6,-6) scale(1,1)"><path d="M 112.02434055397728 257.68 C 112.02434055397728 252.886167936 115.91018287892274 249 120.70361328125 249 C 125.49704368357726 249 129.38288600852272 252.886167936 129.38288600852272 257.68 C 129.38288600852272 262.473832064 125.49704368357726 266.36 120.70361328125 266.36 C 115.91018287892274 266.36 112.02434055397728 262.473832064 112.02434055397728 257.68 Z" fill="#ffffff" stroke="none"/></g><g transform="translate(-6,-6) scale(1,1)"><path d="M 112.02434055397728 257.68 C 112.02434055397728 252.886167936 115.91018287892274 249 120.70361328125 249 C 125.49704368357726 249 129.38288600852272 252.886167936 129.38288600852272 257.68 C 129.38288600852272 262.473832064 125.49704368357726 266.36 120.70361328125 266.36 C 115.91018287892274 266.36 112.02434055397728 262.473832064 112.02434055397728 257.68 Z" fill="none" stroke="#000000" stroke-miterlimit="10"/></g><g transform="translate(-6,-6) scale(1,1)"><path d="M 120.70361328125 266.36 L 120.70361328125 283.64" fill="none" stroke="#000000" stroke-miterlimit="10"/></g><g transform="translate(-6,-6) scale(1,1)"><path d="M 111.51379509943183 272.84 L 129.89343146306817 272.84" fill="none" stroke="#000000" stroke-miterlimit="10"/></g><g transform="translate(-6,-6) scale(1,1)"><path d="M 120.70361328125 283.64 L 107.93997691761365 301" fill="none" stroke="#000000" stroke-miterlimit="10"/></g><g transform="translate(-6,-6) scale(1,1)"><path d="M 120.70361328125 283.64 L 133.46724964488635 301" fill="none" stroke="#000000" stroke-miterlimit="10"/></g><g transform="translate(-6,-6) scale(1,1)"><g><path fill="none" stroke="none"/><text fill="#000000" font-family="Arial" font-size="13px" font-style="normal" font-weight="bold" stroke="none" text-decoration="none" x="44.5" y="320">Responsabile di negozio</text></g></g><g transform="translate(-6,-6) scale(1,1)"><path d="M 40 280 L 16 280 L 16 56 L 95 56" fill="none" stroke="#000000" stroke-miterlimit="10"/></g><g transform="translate(-6,-6) scale(1,1)"><path d="M 74.67465028475169 64.41903551203198 L 95 56 L 74.67465028475169 47.580964487968025" fill="#FFFFFF" stroke="none"/></g><g transform="translate(-6,-6) scale(1,1)"><path d="M 74.67465028475169 64.41903551203198 L 95 56 L 74.67465028475169 47.580964487968025 L 74.67465028475169 64.41903551203198" fill="none" stroke="#000000" stroke-miterlimit="10"/></g><g transform="translate(-6,-6) scale(1,1)"><path d="M 257 209 L 190 247" fill="none" stroke="#000000" stroke-miterlimit="10"/></g></g></svg>